<?xml version="1.0" standalone="no"?>
<!DOCTYPE svg PUBLIC "-//W3C//DTD SVG 20010904//EN"
 "http://www.w3.org/TR/2001/REC-SVG-20010904/DTD/svg10.dtd">
<svg version="1.0" xmlns="http://www.w3.org/2000/svg"
 width="512.000000pt" height="512.000000pt" viewBox="0 0 512.000000 512.000000"
 preserveAspectRatio="xMidYMid meet">
<metadata>
Created by potrace 1.11, written by Peter Selinger 2001-2013
</metadata>
<g transform="translate(0.000000,512.000000) scale(0.100000,-0.100000)"
fill="#000000" stroke="none">
<path d="M0 2560 l0 -2560 2560 0 2560 0 0 2560 0 2560 -2560 0 -2560 0 0
-2560z m2510 520 l0 -299 -83 -3 -84 -3 163 -610 c90 -335 168 -627 174 -647
l11 -38 69 0 70 0 0 -285 0 -285 -445 0 -445 0 0 285 0 285 75 0 c53 0 75 4
75 13 0 6 -14 72 -31 145 l-31 132 -224 0 c-123 0 -224 -1 -224 -3 0 -2 -16
-64 -35 -138 -19 -74 -35 -137 -35 -141 0 -5 34 -8 75 -8 l75 0 -2 -282 -3
-283 -332 -3 -333 -2 0 285 0 285 65 0 64 0 10 38 c5 20 78 305 161 632 83
327 153 603 156 612 4 15 -5 18 -73 20 l-78 3 -3 298 -2 297 610 0 610 0 0
-300z m898 -1062 c11 -29 46 -126 78 -216 40 -109 62 -159 68 -150 4 8 40 104
80 213 l71 200 213 3 212 2 0 -150 0 -150 -30 0 -30 0 0 -290 0 -290 30 0 30
0 0 -140 0 -140 -200 0 -200 0 0 140 0 140 30 0 30 0 -1 303 c0 166 -3 295 -7
287 -3 -8 -53 -206 -112 -440 l-106 -425 -60 -3 -60 -3 -118 438 c-65 241
-120 440 -122 442 -2 2 -4 -131 -4 -297 l0 -302 30 0 30 0 0 -140 0 -140 -150
0 -150 0 0 140 0 140 30 0 30 0 0 290 0 290 -30 0 -30 0 0 150 0 150 214 0
215 0 19 -52z m1162 -1348 l0 -120 -2010 0 -2010 0 0 120 0 120 2010 0 2010 0
0 -120z"/>
<path d="M1801 2778 c-1 -3 -32 -160 -71 -348 -38 -188 -70 -346 -70 -351 0
-5 64 -9 145 -9 80 0 145 1 145 3 -1 13 -149 710 -149 705z"/>
</g>
</svg>
