<?xml version="1.0" encoding="UTF-8" standalone="no"?>
<!DOCTYPE svg PUBLIC "-//W3C//DTD SVG 1.1//EN" "http://www.w3.org/Graphics/SVG/1.1/DTD/svg11.dtd">
<svg width="100%" height="100%" viewBox="0 0 340 340" version="1.1" xmlns="http://www.w3.org/2000/svg" xmlns:xlink="http://www.w3.org/1999/xlink" xml:space="preserve" xmlns:serif="http://www.serif.com/" style="fill-rule:evenodd;clip-rule:evenodd;stroke-linejoin:round;stroke-miterlimit:2;">
    <g transform="matrix(1,0,0,0.983067,0,0)">
        <g id="bground">
            <path d="M340,86.453C340,38.738 301.918,0 255.011,0L84.989,0C38.082,0 0,38.738 0,86.453L0,259.36C0,307.075 38.082,345.813 84.989,345.813L255.011,345.813C301.918,345.813 340,307.075 340,259.36L340,86.453Z" style="fill:rgb(18,136,91);"/>
        </g>
    </g>
    <g id="g12" transform="matrix(0.133333,0,0,-0.133333,36.65,303.312)">
        <path id="path14" d="M625.051,1126.43L549.844,757.176L697,757.176L621.211,1126.43L625.051,1126.43ZM369.527,1407.35L975.988,1407.35L975.988,1112.23L890.043,1112.23L1064.1,462.172L1133.75,462.172L1133.75,179.555L692.516,179.555L690.199,462.172L769.891,462.172L736.109,605.895L512.262,605.895L474.645,462.172L549.137,462.172L549.137,179.555L217.535,179.555L217.535,462.172L283.719,462.172L448.555,1112.23L369.527,1112.23L369.527,1407.35" style="fill:white;"/>
        <path id="path22" d="M1782.63,179.832L1584.52,179.832L1584.52,316.406L1615.02,316.406L1611.02,627.863L1498.62,179.379L1440.9,179.379L1319.44,626.949L1319.44,316.406L1350.29,316.406L1350.29,179.832L1201.81,179.832L1201.81,316.406L1232.31,316.406L1232.31,604.984L1201.81,604.984L1201.81,757.043L1411.77,757.043L1492.75,534.988L1572.67,757.043L1782.63,757.043L1782.63,604.984L1752.12,604.984L1752.12,316.406L1782.63,316.406L1782.63,179.832" style="fill:white;"/>
        <g id="path44" transform="matrix(7.5,0,0,-7.5,0,2000)">
            <path d="M266.585,66.173L140.719,66.173L150.672,79.076L133.082,79.076L90.902,23.783L18.136,118.373L1.069,118.373L90.902,1.135L129.857,51.981L266.585,52.087L266.585,66.173Z" style="fill:rgb(217,7,56);fill-rule:nonzero;"/>
        </g>
        <g id="path38" transform="matrix(7.53103,0,0,-8.11543,-8.27237,2154.44)">
            <rect x="1.098" y="250.939" width="265.486" height="14.535" style="fill:white;"/>
        </g>
    </g>
</svg>
