<?xml version="1.0" encoding="UTF-8" standalone="no"?><!DOCTYPE svg PUBLIC "-//W3C//DTD SVG 1.1//EN" "http://www.w3.org/Graphics/SVG/1.1/DTD/svg11.dtd"><svg width="100%" height="100%" viewBox="0 0 267 267" version="1.1" xmlns="http://www.w3.org/2000/svg" xmlns:xlink="http://www.w3.org/1999/xlink" xml:space="preserve" xmlns:serif="http://www.serif.com/" style="fill-rule:evenodd;clip-rule:evenodd;stroke-linejoin:round;stroke-miterlimit:2;"><g id="g12"><path id="path14" d="M83.34,116.476l-10.027,49.234l19.62,0l-10.105,-49.234l0.512,0Zm-34.07,-37.456l80.862,0l0,39.349l-11.46,0l23.208,86.675l9.287,0l0,37.682l-58.832,0l-0.308,-37.682l10.625,0l-4.504,-19.163l-29.846,0l-5.016,19.163l9.932,0l0,37.682l-44.213,0l0,-37.682l8.824,0l21.978,-86.675l-10.537,0l0,-39.349" style="fill:#12885b;"/><path id="path22" d="M237.684,242.689l-26.415,0l0,-18.21l4.067,0l-0.533,-41.527l-14.987,59.797l-7.696,0l-16.195,-59.676l0,41.406l4.114,0l0,18.21l-19.798,0l0,-18.21l4.067,0l0,-38.477l-4.067,0l0,-20.274l27.995,0l10.797,29.607l10.656,-29.607l27.995,0l0,20.274l-4.068,0l0,38.477l4.068,0l0,18.21" style="fill:#12885b;"/><path id="path44" d="M266.585,66.173l-125.866,0l9.953,12.903l-17.59,0l-42.18,-55.293l-72.766,94.59l-17.067,0l89.833,-117.238l38.955,50.846l136.728,0.106l0,14.086Z" style="fill:#d90738;fill-rule:nonzero;"/><rect id="path38" x="0" y="250.939" width="266.585" height="15.728" style="fill:#12885b;"/></g></svg>