<?xml version="1.0" encoding="UTF-8" standalone="no"?>
<!DOCTYPE svg PUBLIC "-//W3C//DTD SVG 1.1//EN" "http://www.w3.org/Graphics/SVG/1.1/DTD/svg11.dtd">
<svg width="100%" height="100%" viewBox="0 0 1242 2436" version="1.1" xmlns="http://www.w3.org/2000/svg" xmlns:xlink="http://www.w3.org/1999/xlink" xml:space="preserve" xmlns:serif="http://www.serif.com/" style="fill-rule:evenodd;clip-rule:evenodd;stroke-linejoin:round;stroke-miterlimit:2;">
    <g id="bg">
        <rect x="0" y="0" width="1242" height="2436" style="fill:rgb(18,136,91);"/>
        <g transform="matrix(1,0,0,1,-5.55466,131.498)">
            <g transform="matrix(50,0,0,50,411.456,276.655)">
                <path d="M1.02,-0.717L0.797,0L0.71,0L0.528,-0.547C0.526,-0.552 0.525,-0.558 0.523,-0.564C0.522,-0.57 0.52,-0.576 0.519,-0.583C0.517,-0.576 0.515,-0.57 0.514,-0.564C0.512,-0.558 0.51,-0.552 0.509,-0.547L0.326,0L0.239,0L0.016,-0.717L0.096,-0.717C0.105,-0.717 0.112,-0.714 0.118,-0.71C0.124,-0.706 0.127,-0.7 0.129,-0.694L0.277,-0.196C0.279,-0.187 0.282,-0.177 0.284,-0.167C0.286,-0.156 0.288,-0.145 0.29,-0.134C0.292,-0.145 0.295,-0.156 0.297,-0.167C0.3,-0.177 0.303,-0.187 0.306,-0.196L0.474,-0.694C0.476,-0.699 0.48,-0.704 0.486,-0.709C0.492,-0.714 0.499,-0.717 0.507,-0.717L0.535,-0.717C0.544,-0.717 0.551,-0.714 0.556,-0.71C0.561,-0.706 0.565,-0.7 0.568,-0.694L0.736,-0.196C0.739,-0.187 0.742,-0.178 0.744,-0.168C0.747,-0.158 0.749,-0.147 0.752,-0.136C0.753,-0.147 0.755,-0.158 0.757,-0.168C0.759,-0.178 0.761,-0.187 0.764,-0.196L0.912,-0.694C0.914,-0.7 0.917,-0.705 0.923,-0.71C0.929,-0.714 0.936,-0.717 0.945,-0.717L1.02,-0.717Z" style="fill:white;fill-opacity:0.61;fill-rule:nonzero;"/>
            </g>
            <g transform="matrix(50,0,0,50,460.406,276.655)">
                <path d="M0.284,-0.515C0.321,-0.515 0.354,-0.508 0.384,-0.496C0.414,-0.484 0.439,-0.466 0.46,-0.444C0.481,-0.421 0.497,-0.393 0.508,-0.361C0.519,-0.329 0.525,-0.293 0.525,-0.254C0.525,-0.214 0.519,-0.178 0.508,-0.146C0.497,-0.114 0.481,-0.086 0.46,-0.064C0.439,-0.041 0.414,-0.023 0.384,-0.011C0.354,0.001 0.321,0.007 0.284,0.007C0.247,0.007 0.213,0.001 0.183,-0.011C0.153,-0.023 0.128,-0.041 0.107,-0.064C0.086,-0.086 0.07,-0.114 0.059,-0.146C0.048,-0.178 0.042,-0.214 0.042,-0.254C0.042,-0.293 0.048,-0.329 0.059,-0.361C0.07,-0.393 0.086,-0.421 0.107,-0.444C0.128,-0.466 0.153,-0.484 0.183,-0.496C0.213,-0.508 0.247,-0.515 0.284,-0.515ZM0.284,-0.063C0.334,-0.063 0.371,-0.079 0.396,-0.113C0.421,-0.146 0.433,-0.193 0.433,-0.253C0.433,-0.313 0.421,-0.36 0.396,-0.394C0.371,-0.428 0.334,-0.444 0.284,-0.445C0.259,-0.444 0.237,-0.44 0.218,-0.432C0.199,-0.423 0.183,-0.41 0.171,-0.394C0.158,-0.378 0.149,-0.358 0.143,-0.334C0.137,-0.31 0.134,-0.283 0.134,-0.253C0.134,-0.193 0.146,-0.146 0.171,-0.113C0.196,-0.079 0.233,-0.063 0.284,-0.063Z" style="fill:white;fill-opacity:0.61;fill-rule:nonzero;"/>
            </g>
            <g transform="matrix(50,0,0,50,488.756,276.655)">
                <path d="M0.165,-0.507L0.165,0.038C0.165,0.058 0.162,0.077 0.157,0.094C0.151,0.112 0.143,0.127 0.131,0.14C0.119,0.153 0.104,0.163 0.086,0.171C0.068,0.178 0.046,0.182 0.021,0.182C0.01,0.182 0,0.181 -0.009,0.18C-0.017,0.178 -0.027,0.175 -0.036,0.172L-0.032,0.124C-0.031,0.121 -0.03,0.119 -0.029,0.117C-0.027,0.116 -0.025,0.115 -0.023,0.115C-0.02,0.114 -0.016,0.114 -0.012,0.114C-0.008,0.114 -0.003,0.115 0.004,0.115C0.03,0.115 0.048,0.108 0.059,0.096C0.07,0.084 0.076,0.065 0.076,0.038L0.076,-0.507L0.165,-0.507ZM0.183,-0.666C0.183,-0.657 0.181,-0.649 0.178,-0.641C0.174,-0.634 0.17,-0.627 0.164,-0.621C0.158,-0.615 0.151,-0.611 0.144,-0.608C0.136,-0.604 0.128,-0.603 0.119,-0.603C0.11,-0.603 0.102,-0.604 0.095,-0.608C0.087,-0.611 0.081,-0.615 0.075,-0.621C0.069,-0.627 0.065,-0.634 0.062,-0.641C0.058,-0.649 0.057,-0.657 0.057,-0.666C0.057,-0.674 0.058,-0.682 0.062,-0.69C0.065,-0.698 0.069,-0.705 0.075,-0.711C0.081,-0.717 0.087,-0.721 0.095,-0.725C0.102,-0.728 0.11,-0.73 0.119,-0.73C0.128,-0.73 0.136,-0.728 0.144,-0.725C0.151,-0.721 0.158,-0.717 0.164,-0.711C0.17,-0.705 0.174,-0.698 0.178,-0.69C0.181,-0.682 0.183,-0.674 0.183,-0.666Z" style="fill:white;fill-opacity:0.61;fill-rule:nonzero;"/>
            </g>
            <g transform="matrix(50,0,0,50,500.756,276.655)">
                <path d="M0.41,-0.309C0.41,-0.329 0.407,-0.348 0.401,-0.365C0.395,-0.382 0.386,-0.397 0.375,-0.41C0.364,-0.422 0.35,-0.432 0.335,-0.439C0.319,-0.446 0.3,-0.449 0.28,-0.449C0.237,-0.449 0.204,-0.437 0.179,-0.412C0.154,-0.387 0.139,-0.353 0.133,-0.309L0.41,-0.309ZM0.482,-0.071C0.47,-0.058 0.457,-0.046 0.442,-0.036C0.427,-0.026 0.41,-0.018 0.393,-0.012C0.375,-0.006 0.357,-0.001 0.339,0.002C0.32,0.005 0.301,0.007 0.283,0.007C0.248,0.007 0.216,0.001 0.186,-0.011C0.157,-0.023 0.131,-0.04 0.11,-0.063C0.088,-0.086 0.071,-0.114 0.06,-0.148C0.048,-0.181 0.042,-0.22 0.042,-0.264C0.042,-0.299 0.047,-0.332 0.058,-0.363C0.069,-0.393 0.084,-0.42 0.105,-0.442C0.125,-0.465 0.15,-0.482 0.179,-0.495C0.208,-0.508 0.241,-0.515 0.278,-0.515C0.308,-0.515 0.336,-0.509 0.362,-0.499C0.388,-0.489 0.41,-0.474 0.429,-0.455C0.448,-0.436 0.463,-0.412 0.474,-0.384C0.484,-0.356 0.49,-0.324 0.49,-0.288C0.49,-0.274 0.488,-0.265 0.485,-0.26C0.482,-0.255 0.476,-0.253 0.468,-0.253L0.13,-0.253C0.131,-0.221 0.135,-0.193 0.143,-0.17C0.151,-0.146 0.162,-0.126 0.176,-0.11C0.19,-0.094 0.206,-0.083 0.226,-0.075C0.245,-0.067 0.267,-0.063 0.291,-0.063C0.313,-0.063 0.332,-0.066 0.348,-0.071C0.364,-0.076 0.378,-0.082 0.39,-0.088C0.402,-0.094 0.411,-0.099 0.419,-0.104C0.427,-0.109 0.434,-0.112 0.44,-0.112C0.447,-0.112 0.452,-0.109 0.457,-0.104L0.482,-0.071Z" style="fill:white;fill-opacity:0.61;fill-rule:nonzero;"/>
            </g>
            <g transform="matrix(50,0,0,50,526.906,276.655)">
                <path d="M0.769,-0.507L0.605,0L0.535,0C0.526,0 0.52,-0.006 0.517,-0.017L0.405,-0.361C0.402,-0.368 0.4,-0.376 0.398,-0.384C0.396,-0.392 0.395,-0.399 0.393,-0.407C0.391,-0.399 0.39,-0.392 0.388,-0.384C0.386,-0.376 0.384,-0.368 0.382,-0.36L0.268,-0.017C0.265,-0.006 0.258,0 0.248,0L0.181,0L0.017,-0.507L0.087,-0.507C0.094,-0.507 0.099,-0.505 0.104,-0.501C0.109,-0.497 0.112,-0.493 0.114,-0.488L0.211,-0.162C0.217,-0.138 0.221,-0.115 0.225,-0.094C0.228,-0.105 0.231,-0.116 0.234,-0.128C0.237,-0.139 0.24,-0.15 0.244,-0.162L0.351,-0.49C0.353,-0.495 0.356,-0.499 0.36,-0.503C0.364,-0.506 0.369,-0.508 0.375,-0.508L0.414,-0.508C0.421,-0.508 0.426,-0.506 0.431,-0.503C0.435,-0.499 0.438,-0.495 0.44,-0.49L0.544,-0.162C0.548,-0.15 0.551,-0.139 0.554,-0.128C0.557,-0.116 0.56,-0.105 0.563,-0.094C0.564,-0.105 0.566,-0.116 0.569,-0.127C0.571,-0.138 0.574,-0.15 0.577,-0.162L0.676,-0.488C0.678,-0.493 0.681,-0.498 0.686,-0.501C0.69,-0.505 0.696,-0.507 0.702,-0.507L0.769,-0.507Z" style="fill:white;fill-opacity:0.61;fill-rule:nonzero;"/>
            </g>
            <g transform="matrix(50,0,0,50,565.831,276.655)">
                <path d="M0.284,-0.515C0.321,-0.515 0.354,-0.508 0.384,-0.496C0.414,-0.484 0.439,-0.466 0.46,-0.444C0.481,-0.421 0.497,-0.393 0.508,-0.361C0.519,-0.329 0.525,-0.293 0.525,-0.254C0.525,-0.214 0.519,-0.178 0.508,-0.146C0.497,-0.114 0.481,-0.086 0.46,-0.064C0.439,-0.041 0.414,-0.023 0.384,-0.011C0.354,0.001 0.321,0.007 0.284,0.007C0.247,0.007 0.213,0.001 0.183,-0.011C0.153,-0.023 0.128,-0.041 0.107,-0.064C0.086,-0.086 0.07,-0.114 0.059,-0.146C0.048,-0.178 0.042,-0.214 0.042,-0.254C0.042,-0.293 0.048,-0.329 0.059,-0.361C0.07,-0.393 0.086,-0.421 0.107,-0.444C0.128,-0.466 0.153,-0.484 0.183,-0.496C0.213,-0.508 0.247,-0.515 0.284,-0.515ZM0.284,-0.063C0.334,-0.063 0.371,-0.079 0.396,-0.113C0.421,-0.146 0.433,-0.193 0.433,-0.253C0.433,-0.313 0.421,-0.36 0.396,-0.394C0.371,-0.428 0.334,-0.444 0.284,-0.445C0.259,-0.444 0.237,-0.44 0.218,-0.432C0.199,-0.423 0.183,-0.41 0.171,-0.394C0.158,-0.378 0.149,-0.358 0.143,-0.334C0.137,-0.31 0.134,-0.283 0.134,-0.253C0.134,-0.193 0.146,-0.146 0.171,-0.113C0.196,-0.079 0.233,-0.063 0.284,-0.063ZM0.43,-0.725L0.314,-0.596C0.309,-0.591 0.304,-0.587 0.3,-0.585C0.295,-0.583 0.29,-0.582 0.283,-0.582L0.23,-0.582L0.304,-0.703C0.308,-0.71 0.313,-0.716 0.319,-0.719C0.324,-0.723 0.332,-0.725 0.343,-0.725L0.43,-0.725Z" style="fill:white;fill-opacity:0.61;fill-rule:nonzero;"/>
            </g>
            <g transform="matrix(50,0,0,50,594.181,276.655)">
                <path d="M0.401,-0.386C0.384,-0.408 0.366,-0.424 0.347,-0.433C0.327,-0.442 0.306,-0.446 0.282,-0.446C0.235,-0.446 0.198,-0.429 0.173,-0.396C0.148,-0.362 0.135,-0.314 0.135,-0.252C0.135,-0.219 0.138,-0.19 0.144,-0.167C0.149,-0.143 0.158,-0.124 0.169,-0.109C0.18,-0.094 0.193,-0.083 0.209,-0.076C0.225,-0.069 0.243,-0.065 0.264,-0.065C0.293,-0.065 0.318,-0.072 0.34,-0.085C0.362,-0.098 0.382,-0.117 0.401,-0.142L0.401,-0.386ZM0.49,-0.737L0.49,0L0.437,0C0.424,0 0.416,-0.006 0.413,-0.019L0.405,-0.08C0.383,-0.054 0.358,-0.033 0.331,-0.017C0.303,-0.001 0.271,0.007 0.235,0.007C0.206,0.007 0.179,0.001 0.156,-0.01C0.132,-0.021 0.112,-0.037 0.095,-0.059C0.078,-0.081 0.066,-0.108 0.057,-0.14C0.048,-0.172 0.043,-0.21 0.043,-0.252C0.043,-0.289 0.048,-0.324 0.058,-0.356C0.068,-0.388 0.082,-0.416 0.101,-0.44C0.12,-0.463 0.143,-0.482 0.17,-0.495C0.197,-0.509 0.228,-0.516 0.262,-0.516C0.293,-0.516 0.319,-0.51 0.341,-0.5C0.363,-0.489 0.383,-0.475 0.401,-0.456L0.401,-0.737L0.49,-0.737Z" style="fill:white;fill-opacity:0.61;fill-rule:nonzero;"/>
            </g>
            <g transform="matrix(50,0,0,50,622.181,276.655)">
                <path d="M0.42,-0.469C0.42,-0.462 0.419,-0.456 0.417,-0.45C0.415,-0.444 0.412,-0.439 0.408,-0.435L0.134,-0.07L0.411,-0.07L0.411,0L0.029,0L0.029,-0.037C0.029,-0.041 0.03,-0.046 0.032,-0.052C0.034,-0.058 0.037,-0.064 0.041,-0.069L0.317,-0.437L0.045,-0.437L0.045,-0.507L0.42,-0.507L0.42,-0.469Z" style="fill:white;fill-opacity:0.61;fill-rule:nonzero;"/>
            </g>
            <g transform="matrix(50,0,0,50,644.781,276.655)">
                <path d="M0.16,-0.737L0.16,-0.303L0.183,-0.303C0.19,-0.303 0.195,-0.304 0.2,-0.306C0.204,-0.308 0.209,-0.311 0.214,-0.317L0.374,-0.489C0.379,-0.494 0.384,-0.499 0.389,-0.502C0.394,-0.505 0.401,-0.507 0.41,-0.507L0.49,-0.507L0.304,-0.308C0.295,-0.297 0.285,-0.288 0.275,-0.282C0.281,-0.278 0.286,-0.273 0.291,-0.268C0.296,-0.263 0.3,-0.257 0.305,-0.25L0.503,0L0.423,0C0.415,0 0.409,-0.001 0.403,-0.004C0.398,-0.006 0.393,-0.011 0.389,-0.018L0.223,-0.225C0.218,-0.232 0.213,-0.237 0.208,-0.239C0.203,-0.241 0.196,-0.242 0.186,-0.242L0.16,-0.242L0.16,0L0.071,0L0.071,-0.737L0.16,-0.737Z" style="fill:white;fill-opacity:0.61;fill-rule:nonzero;"/>
            </g>
            <g transform="matrix(50,0,0,50,670.181,276.655)">
                <path d="M0.165,-0.507L0.165,0L0.076,0L0.076,-0.507L0.165,-0.507ZM0.184,-0.666C0.184,-0.657 0.182,-0.649 0.178,-0.641C0.175,-0.634 0.17,-0.627 0.164,-0.621C0.158,-0.615 0.152,-0.611 0.144,-0.608C0.136,-0.604 0.128,-0.603 0.119,-0.603C0.11,-0.603 0.102,-0.604 0.095,-0.608C0.087,-0.611 0.081,-0.615 0.075,-0.621C0.069,-0.627 0.065,-0.634 0.062,-0.641C0.058,-0.649 0.057,-0.657 0.057,-0.666C0.057,-0.674 0.058,-0.682 0.062,-0.69C0.065,-0.698 0.069,-0.705 0.075,-0.711C0.081,-0.717 0.087,-0.721 0.095,-0.725C0.102,-0.728 0.11,-0.73 0.119,-0.73C0.128,-0.73 0.136,-0.728 0.144,-0.725C0.152,-0.721 0.158,-0.717 0.164,-0.711C0.17,-0.705 0.175,-0.698 0.178,-0.69C0.182,-0.682 0.184,-0.674 0.184,-0.666Z" style="fill:white;fill-opacity:0.61;fill-rule:nonzero;"/>
            </g>
            <g transform="matrix(50,0,0,50,694.981,276.655)">
                <path d="M0.458,-0.605C0.455,-0.6 0.452,-0.596 0.448,-0.593C0.445,-0.591 0.44,-0.59 0.436,-0.59C0.43,-0.59 0.423,-0.592 0.416,-0.598C0.408,-0.604 0.398,-0.61 0.387,-0.617C0.375,-0.624 0.361,-0.63 0.345,-0.636C0.329,-0.641 0.31,-0.644 0.287,-0.644C0.265,-0.644 0.246,-0.641 0.229,-0.635C0.213,-0.629 0.199,-0.622 0.188,-0.612C0.177,-0.602 0.168,-0.59 0.163,-0.576C0.157,-0.563 0.154,-0.548 0.154,-0.533C0.154,-0.513 0.159,-0.496 0.169,-0.483C0.179,-0.47 0.192,-0.458 0.208,-0.449C0.224,-0.44 0.242,-0.432 0.263,-0.425C0.283,-0.418 0.304,-0.411 0.326,-0.404C0.347,-0.396 0.368,-0.388 0.389,-0.379C0.409,-0.37 0.428,-0.358 0.444,-0.344C0.46,-0.33 0.473,-0.313 0.483,-0.293C0.493,-0.272 0.498,-0.247 0.498,-0.218C0.498,-0.186 0.492,-0.157 0.482,-0.129C0.471,-0.102 0.455,-0.078 0.435,-0.058C0.414,-0.037 0.389,-0.021 0.359,-0.01C0.329,0.002 0.296,0.008 0.258,0.008C0.211,0.008 0.169,0 0.131,-0.017C0.092,-0.034 0.06,-0.057 0.033,-0.086L0.061,-0.132C0.064,-0.135 0.067,-0.138 0.071,-0.141C0.075,-0.143 0.079,-0.145 0.084,-0.145C0.088,-0.145 0.093,-0.143 0.098,-0.139C0.104,-0.136 0.11,-0.131 0.117,-0.126C0.124,-0.121 0.132,-0.115 0.141,-0.109C0.15,-0.102 0.16,-0.096 0.172,-0.091C0.183,-0.086 0.196,-0.081 0.211,-0.078C0.226,-0.074 0.242,-0.073 0.261,-0.073C0.284,-0.073 0.304,-0.076 0.322,-0.082C0.34,-0.088 0.355,-0.097 0.368,-0.109C0.38,-0.12 0.39,-0.134 0.397,-0.15C0.403,-0.166 0.407,-0.184 0.407,-0.204C0.407,-0.225 0.402,-0.243 0.392,-0.257C0.382,-0.271 0.369,-0.282 0.353,-0.292C0.337,-0.301 0.319,-0.309 0.298,-0.315C0.277,-0.322 0.256,-0.328 0.235,-0.335C0.214,-0.342 0.193,-0.35 0.172,-0.359C0.151,-0.368 0.133,-0.38 0.117,-0.394C0.101,-0.408 0.088,-0.426 0.078,-0.448C0.068,-0.469 0.064,-0.496 0.064,-0.528C0.064,-0.553 0.068,-0.577 0.078,-0.601C0.088,-0.625 0.102,-0.646 0.121,-0.664C0.14,-0.682 0.163,-0.697 0.191,-0.708C0.218,-0.719 0.25,-0.725 0.286,-0.725C0.326,-0.725 0.362,-0.718 0.395,-0.706C0.428,-0.693 0.456,-0.675 0.482,-0.651L0.458,-0.605Z" style="fill:white;fill-opacity:0.61;fill-rule:nonzero;"/>
            </g>
            <g transform="matrix(50,0,0,50,721.256,276.655)">
                <path d="M0.42,-0.469C0.42,-0.462 0.419,-0.456 0.417,-0.45C0.415,-0.444 0.412,-0.439 0.408,-0.435L0.134,-0.07L0.411,-0.07L0.411,0L0.029,0L0.029,-0.037C0.029,-0.041 0.03,-0.046 0.032,-0.052C0.034,-0.058 0.037,-0.064 0.041,-0.069L0.317,-0.437L0.045,-0.437L0.045,-0.507L0.42,-0.507L0.42,-0.469Z" style="fill:white;fill-opacity:0.61;fill-rule:nonzero;"/>
            </g>
            <g transform="matrix(50,0,0,50,743.856,276.655)">
                <path d="M0.16,-0.122C0.176,-0.1 0.194,-0.085 0.214,-0.076C0.233,-0.067 0.255,-0.062 0.279,-0.062C0.326,-0.062 0.362,-0.079 0.388,-0.113C0.413,-0.146 0.426,-0.194 0.426,-0.257C0.426,-0.29 0.423,-0.318 0.417,-0.342C0.411,-0.365 0.403,-0.385 0.392,-0.4C0.381,-0.415 0.367,-0.426 0.351,-0.433C0.335,-0.44 0.317,-0.444 0.297,-0.444C0.268,-0.444 0.242,-0.437 0.22,-0.424C0.198,-0.41 0.178,-0.391 0.16,-0.367L0.16,-0.122ZM0.156,-0.428C0.177,-0.454 0.202,-0.476 0.23,-0.492C0.258,-0.507 0.29,-0.516 0.326,-0.516C0.355,-0.516 0.381,-0.51 0.405,-0.499C0.429,-0.488 0.449,-0.471 0.466,-0.449C0.482,-0.427 0.495,-0.4 0.504,-0.368C0.513,-0.336 0.518,-0.299 0.518,-0.257C0.518,-0.219 0.513,-0.184 0.503,-0.152C0.493,-0.12 0.478,-0.092 0.459,-0.069C0.44,-0.045 0.417,-0.027 0.39,-0.013C0.363,0 0.333,0.007 0.299,0.007C0.268,0.007 0.241,0.002 0.219,-0.009C0.197,-0.019 0.177,-0.034 0.16,-0.053L0.16,0.172L0.071,0.172L0.071,-0.507L0.124,-0.507C0.137,-0.507 0.145,-0.5 0.148,-0.488L0.156,-0.428Z" style="fill:white;fill-opacity:0.61;fill-rule:nonzero;"/>
            </g>
            <g transform="matrix(50,0,0,50,771.881,276.655)">
                <path d="M0.165,-0.507L0.165,0L0.076,0L0.076,-0.507L0.165,-0.507ZM0.184,-0.666C0.184,-0.657 0.182,-0.649 0.178,-0.641C0.175,-0.634 0.17,-0.627 0.164,-0.621C0.158,-0.615 0.152,-0.611 0.144,-0.608C0.136,-0.604 0.128,-0.603 0.119,-0.603C0.11,-0.603 0.102,-0.604 0.095,-0.608C0.087,-0.611 0.081,-0.615 0.075,-0.621C0.069,-0.627 0.065,-0.634 0.062,-0.641C0.058,-0.649 0.057,-0.657 0.057,-0.666C0.057,-0.674 0.058,-0.682 0.062,-0.69C0.065,-0.698 0.069,-0.705 0.075,-0.711C0.081,-0.717 0.087,-0.721 0.095,-0.725C0.102,-0.728 0.11,-0.73 0.119,-0.73C0.128,-0.73 0.136,-0.728 0.144,-0.725C0.152,-0.721 0.158,-0.717 0.164,-0.711C0.17,-0.705 0.175,-0.698 0.178,-0.69C0.182,-0.682 0.184,-0.674 0.184,-0.666Z" style="fill:white;fill-opacity:0.61;fill-rule:nonzero;"/>
            </g>
            <g transform="matrix(50,0,0,50,783.881,276.655)">
                <path d="M0.226,0.008C0.186,0.008 0.155,-0.003 0.134,-0.026C0.112,-0.048 0.101,-0.08 0.102,-0.122L0.102,-0.432L0.041,-0.432C0.035,-0.432 0.031,-0.434 0.027,-0.437C0.023,-0.44 0.022,-0.445 0.022,-0.452L0.022,-0.487L0.105,-0.498L0.125,-0.654C0.126,-0.659 0.128,-0.663 0.132,-0.666C0.135,-0.669 0.14,-0.671 0.146,-0.671L0.191,-0.671L0.191,-0.497L0.337,-0.497L0.337,-0.432L0.191,-0.432L0.191,-0.128C0.191,-0.107 0.196,-0.091 0.206,-0.081C0.216,-0.07 0.23,-0.065 0.246,-0.065C0.255,-0.065 0.263,-0.066 0.27,-0.069C0.277,-0.071 0.283,-0.074 0.288,-0.077C0.293,-0.08 0.297,-0.083 0.301,-0.085C0.304,-0.088 0.307,-0.089 0.31,-0.089C0.315,-0.089 0.319,-0.086 0.323,-0.081L0.349,-0.038C0.333,-0.024 0.315,-0.012 0.293,-0.004C0.271,0.004 0.249,0.008 0.226,0.008Z" style="fill:white;fill-opacity:0.61;fill-rule:nonzero;"/>
            </g>
            <g transform="matrix(50,0,0,50,801.806,276.655)">
                <path d="M0.345,-0.228C0.304,-0.227 0.269,-0.223 0.24,-0.218C0.211,-0.213 0.188,-0.206 0.17,-0.198C0.152,-0.19 0.138,-0.18 0.13,-0.169C0.122,-0.157 0.118,-0.145 0.118,-0.131C0.118,-0.117 0.12,-0.106 0.125,-0.096C0.129,-0.086 0.135,-0.078 0.142,-0.072C0.15,-0.066 0.159,-0.062 0.169,-0.059C0.179,-0.056 0.19,-0.055 0.202,-0.055C0.217,-0.055 0.232,-0.056 0.245,-0.059C0.258,-0.062 0.27,-0.067 0.281,-0.073C0.293,-0.079 0.304,-0.086 0.314,-0.095C0.325,-0.103 0.335,-0.112 0.345,-0.123L0.345,-0.228ZM0.058,-0.435C0.086,-0.462 0.116,-0.482 0.148,-0.496C0.18,-0.509 0.216,-0.516 0.256,-0.516C0.284,-0.516 0.309,-0.511 0.331,-0.502C0.353,-0.492 0.372,-0.479 0.387,-0.463C0.402,-0.446 0.413,-0.426 0.421,-0.402C0.428,-0.378 0.432,-0.352 0.432,-0.324L0.432,0L0.393,0C0.384,0 0.377,-0.001 0.373,-0.004C0.368,-0.007 0.364,-0.013 0.362,-0.021L0.352,-0.069C0.338,-0.057 0.325,-0.046 0.313,-0.036C0.3,-0.027 0.286,-0.019 0.273,-0.012C0.259,-0.006 0.244,-0.001 0.228,0.003C0.212,0.006 0.194,0.008 0.175,0.008C0.155,0.008 0.137,0.005 0.12,0C0.102,-0.006 0.087,-0.014 0.074,-0.025C0.061,-0.036 0.051,-0.05 0.044,-0.067C0.036,-0.084 0.033,-0.103 0.033,-0.127C0.033,-0.147 0.038,-0.166 0.049,-0.184C0.06,-0.203 0.078,-0.219 0.103,-0.234C0.127,-0.248 0.159,-0.26 0.199,-0.269C0.239,-0.278 0.287,-0.283 0.345,-0.285L0.345,-0.324C0.345,-0.363 0.337,-0.393 0.32,-0.413C0.303,-0.433 0.278,-0.444 0.245,-0.444C0.223,-0.444 0.205,-0.441 0.19,-0.435C0.175,-0.43 0.162,-0.424 0.151,-0.417C0.14,-0.41 0.131,-0.404 0.123,-0.398C0.115,-0.393 0.108,-0.39 0.1,-0.39C0.094,-0.39 0.089,-0.392 0.085,-0.395C0.08,-0.398 0.077,-0.402 0.074,-0.407L0.058,-0.435Z" style="fill:white;fill-opacity:0.61;fill-rule:nonzero;"/>
            </g>
            <g transform="matrix(50,0,0,50,826.656,276.655)">
                <rect x="0.074" y="-0.737" width="0.089" height="0.737" style="fill:white;fill-opacity:0.61;fill-rule:nonzero;"/>
            </g>
            <g transform="matrix(50,0,0,50,459.894,351.655)">
                <path d="M0.29,-0.37C0.318,-0.37 0.343,-0.373 0.364,-0.38C0.386,-0.387 0.404,-0.396 0.418,-0.409C0.433,-0.421 0.444,-0.436 0.451,-0.454C0.458,-0.471 0.462,-0.49 0.462,-0.511C0.462,-0.554 0.448,-0.586 0.42,-0.608C0.392,-0.629 0.35,-0.64 0.294,-0.64L0.188,-0.64L0.188,-0.37L0.29,-0.37ZM0.621,0L0.535,0C0.517,0 0.504,-0.007 0.496,-0.021L0.31,-0.277C0.304,-0.284 0.298,-0.29 0.292,-0.294C0.285,-0.297 0.275,-0.299 0.262,-0.299L0.188,-0.299L0.188,0L0.092,0L0.092,-0.717L0.294,-0.717C0.339,-0.717 0.379,-0.712 0.412,-0.703C0.445,-0.694 0.472,-0.68 0.493,-0.663C0.515,-0.646 0.531,-0.625 0.541,-0.6C0.551,-0.576 0.557,-0.548 0.557,-0.518C0.557,-0.493 0.553,-0.469 0.545,-0.447C0.537,-0.425 0.525,-0.405 0.51,-0.388C0.495,-0.37 0.476,-0.355 0.454,-0.343C0.432,-0.331 0.408,-0.321 0.38,-0.315C0.392,-0.308 0.403,-0.298 0.412,-0.285L0.621,0Z" style="fill:white;fill-opacity:0.61;fill-rule:nonzero;"/>
            </g>
            <g transform="matrix(50,0,0,50,489.594,351.655)">
                <path d="M0.41,-0.309C0.41,-0.329 0.407,-0.348 0.401,-0.365C0.395,-0.382 0.386,-0.397 0.375,-0.41C0.364,-0.422 0.35,-0.432 0.335,-0.439C0.319,-0.446 0.3,-0.449 0.28,-0.449C0.237,-0.449 0.204,-0.437 0.179,-0.412C0.154,-0.387 0.139,-0.353 0.133,-0.309L0.41,-0.309ZM0.482,-0.071C0.47,-0.058 0.457,-0.046 0.442,-0.036C0.427,-0.026 0.41,-0.018 0.393,-0.012C0.375,-0.006 0.357,-0.001 0.339,0.002C0.32,0.005 0.301,0.007 0.283,0.007C0.248,0.007 0.216,0.001 0.186,-0.011C0.157,-0.023 0.131,-0.04 0.11,-0.063C0.088,-0.086 0.071,-0.114 0.06,-0.148C0.048,-0.181 0.042,-0.22 0.042,-0.264C0.042,-0.299 0.047,-0.332 0.058,-0.363C0.069,-0.393 0.084,-0.42 0.105,-0.442C0.125,-0.465 0.15,-0.482 0.179,-0.495C0.208,-0.508 0.241,-0.515 0.278,-0.515C0.308,-0.515 0.336,-0.509 0.362,-0.499C0.388,-0.489 0.41,-0.474 0.429,-0.455C0.448,-0.436 0.463,-0.412 0.474,-0.384C0.484,-0.356 0.49,-0.324 0.49,-0.288C0.49,-0.274 0.488,-0.265 0.485,-0.26C0.482,-0.255 0.476,-0.253 0.468,-0.253L0.13,-0.253C0.131,-0.221 0.135,-0.193 0.143,-0.17C0.151,-0.146 0.162,-0.126 0.176,-0.11C0.19,-0.094 0.206,-0.083 0.226,-0.075C0.245,-0.067 0.267,-0.063 0.291,-0.063C0.313,-0.063 0.332,-0.066 0.348,-0.071C0.364,-0.076 0.378,-0.082 0.39,-0.088C0.402,-0.094 0.411,-0.099 0.419,-0.104C0.427,-0.109 0.434,-0.112 0.44,-0.112C0.447,-0.112 0.452,-0.109 0.457,-0.104L0.482,-0.071Z" style="fill:white;fill-opacity:0.61;fill-rule:nonzero;"/>
            </g>
            <g transform="matrix(50,0,0,50,515.994,351.655)">
                <path d="M0.16,-0.439C0.182,-0.462 0.206,-0.48 0.232,-0.494C0.258,-0.508 0.289,-0.515 0.323,-0.515C0.351,-0.515 0.375,-0.51 0.396,-0.501C0.417,-0.492 0.435,-0.479 0.449,-0.462C0.463,-0.445 0.474,-0.425 0.482,-0.401C0.489,-0.377 0.493,-0.351 0.493,-0.323L0.493,0L0.403,0L0.403,-0.323C0.403,-0.361 0.394,-0.391 0.377,-0.412C0.359,-0.433 0.333,-0.444 0.297,-0.444C0.271,-0.444 0.246,-0.437 0.223,-0.425C0.2,-0.412 0.179,-0.395 0.16,-0.373L0.16,0L0.071,0L0.071,-0.737L0.16,-0.737L0.16,-0.439Z" style="fill:white;fill-opacity:0.61;fill-rule:nonzero;"/>
            </g>
            <g transform="matrix(50,0,0,50,543.894,351.655)">
                <path d="M0.345,-0.228C0.304,-0.227 0.269,-0.223 0.24,-0.218C0.211,-0.213 0.188,-0.206 0.17,-0.198C0.152,-0.19 0.138,-0.18 0.13,-0.169C0.122,-0.157 0.118,-0.145 0.118,-0.131C0.118,-0.117 0.12,-0.106 0.125,-0.096C0.129,-0.086 0.135,-0.078 0.142,-0.072C0.15,-0.066 0.159,-0.062 0.169,-0.059C0.179,-0.056 0.19,-0.055 0.202,-0.055C0.217,-0.055 0.232,-0.056 0.245,-0.059C0.258,-0.062 0.27,-0.067 0.281,-0.073C0.293,-0.079 0.304,-0.086 0.314,-0.095C0.325,-0.103 0.335,-0.112 0.345,-0.123L0.345,-0.228ZM0.058,-0.435C0.086,-0.462 0.116,-0.482 0.148,-0.496C0.18,-0.509 0.216,-0.516 0.256,-0.516C0.284,-0.516 0.309,-0.511 0.331,-0.502C0.353,-0.492 0.372,-0.479 0.387,-0.463C0.402,-0.446 0.413,-0.426 0.421,-0.402C0.428,-0.378 0.432,-0.352 0.432,-0.324L0.432,0L0.393,0C0.384,0 0.377,-0.001 0.373,-0.004C0.368,-0.007 0.364,-0.013 0.362,-0.021L0.352,-0.069C0.338,-0.057 0.325,-0.046 0.313,-0.036C0.3,-0.027 0.286,-0.019 0.273,-0.012C0.259,-0.006 0.244,-0.001 0.228,0.003C0.212,0.006 0.194,0.008 0.175,0.008C0.155,0.008 0.137,0.005 0.12,0C0.102,-0.006 0.087,-0.014 0.074,-0.025C0.061,-0.036 0.051,-0.05 0.044,-0.067C0.036,-0.084 0.033,-0.103 0.033,-0.127C0.033,-0.147 0.038,-0.166 0.049,-0.184C0.06,-0.203 0.078,-0.219 0.103,-0.234C0.127,-0.248 0.159,-0.26 0.199,-0.269C0.239,-0.278 0.287,-0.283 0.345,-0.285L0.345,-0.324C0.345,-0.363 0.337,-0.393 0.32,-0.413C0.303,-0.433 0.278,-0.444 0.245,-0.444C0.223,-0.444 0.205,-0.441 0.19,-0.435C0.175,-0.43 0.162,-0.424 0.151,-0.417C0.14,-0.41 0.131,-0.404 0.123,-0.398C0.115,-0.393 0.108,-0.39 0.1,-0.39C0.094,-0.39 0.089,-0.392 0.085,-0.395C0.08,-0.398 0.077,-0.402 0.074,-0.407L0.058,-0.435Z" style="fill:white;fill-opacity:0.61;fill-rule:nonzero;"/>
            </g>
            <g transform="matrix(50,0,0,50,568.744,351.655)">
                <path d="M0.16,-0.122C0.176,-0.1 0.194,-0.085 0.214,-0.076C0.233,-0.067 0.255,-0.062 0.278,-0.062C0.326,-0.062 0.362,-0.079 0.388,-0.113C0.413,-0.146 0.426,-0.196 0.426,-0.263C0.426,-0.325 0.414,-0.371 0.392,-0.4C0.369,-0.429 0.337,-0.444 0.296,-0.444C0.267,-0.444 0.241,-0.437 0.22,-0.424C0.198,-0.41 0.178,-0.391 0.16,-0.367L0.16,-0.122ZM0.16,-0.434C0.181,-0.458 0.205,-0.478 0.232,-0.493C0.259,-0.507 0.29,-0.515 0.325,-0.515C0.355,-0.515 0.381,-0.509 0.405,-0.498C0.429,-0.486 0.449,-0.47 0.466,-0.448C0.483,-0.427 0.495,-0.401 0.504,-0.37C0.513,-0.339 0.518,-0.305 0.518,-0.267C0.518,-0.226 0.513,-0.188 0.503,-0.155C0.493,-0.121 0.478,-0.092 0.459,-0.068C0.44,-0.044 0.418,-0.026 0.391,-0.013C0.364,0 0.333,0.007 0.3,0.007C0.266,0.007 0.238,0.001 0.215,-0.012C0.192,-0.024 0.172,-0.042 0.156,-0.065L0.151,-0.019C0.148,-0.006 0.141,0 0.128,0L0.071,0L0.071,-0.737L0.16,-0.737L0.16,-0.434Z" style="fill:white;fill-opacity:0.61;fill-rule:nonzero;"/>
            </g>
            <g transform="matrix(50,0,0,50,596.744,351.655)">
                <path d="M0.165,-0.507L0.165,0L0.076,0L0.076,-0.507L0.165,-0.507ZM0.184,-0.666C0.184,-0.657 0.182,-0.649 0.178,-0.641C0.175,-0.634 0.17,-0.627 0.164,-0.621C0.158,-0.615 0.152,-0.611 0.144,-0.608C0.136,-0.604 0.128,-0.603 0.119,-0.603C0.11,-0.603 0.102,-0.604 0.095,-0.608C0.087,-0.611 0.081,-0.615 0.075,-0.621C0.069,-0.627 0.065,-0.634 0.062,-0.641C0.058,-0.649 0.057,-0.657 0.057,-0.666C0.057,-0.674 0.058,-0.682 0.062,-0.69C0.065,-0.698 0.069,-0.705 0.075,-0.711C0.081,-0.717 0.087,-0.721 0.095,-0.725C0.102,-0.728 0.11,-0.73 0.119,-0.73C0.128,-0.73 0.136,-0.728 0.144,-0.725C0.152,-0.721 0.158,-0.717 0.164,-0.711C0.17,-0.705 0.175,-0.698 0.178,-0.69C0.182,-0.682 0.184,-0.674 0.184,-0.666Z" style="fill:white;fill-opacity:0.61;fill-rule:nonzero;"/>
            </g>
            <g transform="matrix(50,0,0,50,608.744,351.655)">
                <rect x="0.074" y="-0.737" width="0.089" height="0.737" style="fill:white;fill-opacity:0.61;fill-rule:nonzero;"/>
            </g>
            <g transform="matrix(50,0,0,50,620.544,351.655)">
                <path d="M0.165,-0.507L0.165,0L0.076,0L0.076,-0.507L0.165,-0.507ZM0.184,-0.666C0.184,-0.657 0.182,-0.649 0.178,-0.641C0.175,-0.634 0.17,-0.627 0.164,-0.621C0.158,-0.615 0.152,-0.611 0.144,-0.608C0.136,-0.604 0.128,-0.603 0.119,-0.603C0.11,-0.603 0.102,-0.604 0.095,-0.608C0.087,-0.611 0.081,-0.615 0.075,-0.621C0.069,-0.627 0.065,-0.634 0.062,-0.641C0.058,-0.649 0.057,-0.657 0.057,-0.666C0.057,-0.674 0.058,-0.682 0.062,-0.69C0.065,-0.698 0.069,-0.705 0.075,-0.711C0.081,-0.717 0.087,-0.721 0.095,-0.725C0.102,-0.728 0.11,-0.73 0.119,-0.73C0.128,-0.73 0.136,-0.728 0.144,-0.725C0.152,-0.721 0.158,-0.717 0.164,-0.711C0.17,-0.705 0.175,-0.698 0.178,-0.69C0.182,-0.682 0.184,-0.674 0.184,-0.666Z" style="fill:white;fill-opacity:0.61;fill-rule:nonzero;"/>
            </g>
            <g transform="matrix(50,0,0,50,632.544,351.655)">
                <path d="M0.226,0.008C0.186,0.008 0.155,-0.003 0.134,-0.026C0.112,-0.048 0.101,-0.08 0.102,-0.122L0.102,-0.432L0.041,-0.432C0.035,-0.432 0.031,-0.434 0.027,-0.437C0.023,-0.44 0.022,-0.445 0.022,-0.452L0.022,-0.487L0.105,-0.498L0.125,-0.654C0.126,-0.659 0.128,-0.663 0.132,-0.666C0.135,-0.669 0.14,-0.671 0.146,-0.671L0.191,-0.671L0.191,-0.497L0.337,-0.497L0.337,-0.432L0.191,-0.432L0.191,-0.128C0.191,-0.107 0.196,-0.091 0.206,-0.081C0.216,-0.07 0.23,-0.065 0.246,-0.065C0.255,-0.065 0.263,-0.066 0.27,-0.069C0.277,-0.071 0.283,-0.074 0.288,-0.077C0.293,-0.08 0.297,-0.083 0.301,-0.085C0.304,-0.088 0.307,-0.089 0.31,-0.089C0.315,-0.089 0.319,-0.086 0.323,-0.081L0.349,-0.038C0.333,-0.024 0.315,-0.012 0.293,-0.004C0.271,0.004 0.249,0.008 0.226,0.008Z" style="fill:white;fill-opacity:0.61;fill-rule:nonzero;"/>
            </g>
            <g transform="matrix(50,0,0,50,650.469,351.655)">
                <path d="M0.345,-0.228C0.304,-0.227 0.269,-0.223 0.24,-0.218C0.211,-0.213 0.188,-0.206 0.17,-0.198C0.152,-0.19 0.138,-0.18 0.13,-0.169C0.122,-0.157 0.118,-0.145 0.118,-0.131C0.118,-0.117 0.12,-0.106 0.125,-0.096C0.129,-0.086 0.135,-0.078 0.142,-0.072C0.15,-0.066 0.159,-0.062 0.169,-0.059C0.179,-0.056 0.19,-0.055 0.202,-0.055C0.217,-0.055 0.232,-0.056 0.245,-0.059C0.258,-0.062 0.27,-0.067 0.281,-0.073C0.293,-0.079 0.304,-0.086 0.314,-0.095C0.325,-0.103 0.335,-0.112 0.345,-0.123L0.345,-0.228ZM0.058,-0.435C0.086,-0.462 0.116,-0.482 0.148,-0.496C0.18,-0.509 0.216,-0.516 0.256,-0.516C0.284,-0.516 0.309,-0.511 0.331,-0.502C0.353,-0.492 0.372,-0.479 0.387,-0.463C0.402,-0.446 0.413,-0.426 0.421,-0.402C0.428,-0.378 0.432,-0.352 0.432,-0.324L0.432,0L0.393,0C0.384,0 0.377,-0.001 0.373,-0.004C0.368,-0.007 0.364,-0.013 0.362,-0.021L0.352,-0.069C0.338,-0.057 0.325,-0.046 0.313,-0.036C0.3,-0.027 0.286,-0.019 0.273,-0.012C0.259,-0.006 0.244,-0.001 0.228,0.003C0.212,0.006 0.194,0.008 0.175,0.008C0.155,0.008 0.137,0.005 0.12,0C0.102,-0.006 0.087,-0.014 0.074,-0.025C0.061,-0.036 0.051,-0.05 0.044,-0.067C0.036,-0.084 0.033,-0.103 0.033,-0.127C0.033,-0.147 0.038,-0.166 0.049,-0.184C0.06,-0.203 0.078,-0.219 0.103,-0.234C0.127,-0.248 0.159,-0.26 0.199,-0.269C0.239,-0.278 0.287,-0.283 0.345,-0.285L0.345,-0.324C0.345,-0.363 0.337,-0.393 0.32,-0.413C0.303,-0.433 0.278,-0.444 0.245,-0.444C0.223,-0.444 0.205,-0.441 0.19,-0.435C0.175,-0.43 0.162,-0.424 0.151,-0.417C0.14,-0.41 0.131,-0.404 0.123,-0.398C0.115,-0.393 0.108,-0.39 0.1,-0.39C0.094,-0.39 0.089,-0.392 0.085,-0.395C0.08,-0.398 0.077,-0.402 0.074,-0.407L0.058,-0.435Z" style="fill:white;fill-opacity:0.61;fill-rule:nonzero;"/>
            </g>
            <g transform="matrix(50,0,0,50,675.319,351.655)">
                <path d="M0.423,-0.417C0.42,-0.413 0.418,-0.41 0.415,-0.408C0.412,-0.406 0.409,-0.405 0.404,-0.405C0.399,-0.405 0.394,-0.407 0.388,-0.411C0.382,-0.415 0.374,-0.42 0.365,-0.425C0.356,-0.43 0.346,-0.435 0.333,-0.439C0.32,-0.443 0.304,-0.445 0.286,-0.445C0.261,-0.445 0.239,-0.441 0.22,-0.432C0.201,-0.423 0.185,-0.41 0.172,-0.394C0.159,-0.377 0.149,-0.357 0.143,-0.333C0.136,-0.309 0.133,-0.283 0.133,-0.254C0.133,-0.223 0.137,-0.196 0.144,-0.172C0.151,-0.148 0.16,-0.128 0.173,-0.112C0.186,-0.096 0.202,-0.083 0.22,-0.075C0.238,-0.066 0.258,-0.062 0.281,-0.062C0.303,-0.062 0.321,-0.065 0.335,-0.07C0.349,-0.075 0.36,-0.081 0.369,-0.087C0.378,-0.093 0.386,-0.099 0.392,-0.104C0.398,-0.109 0.405,-0.112 0.411,-0.112C0.418,-0.112 0.424,-0.109 0.428,-0.104L0.453,-0.071C0.442,-0.057 0.429,-0.046 0.415,-0.036C0.401,-0.026 0.386,-0.018 0.37,-0.012C0.354,-0.005 0.337,-0.001 0.319,0.003C0.301,0.006 0.283,0.007 0.265,0.007C0.233,0.007 0.204,0.001 0.177,-0.011C0.15,-0.022 0.126,-0.039 0.106,-0.061C0.086,-0.083 0.07,-0.111 0.059,-0.143C0.048,-0.175 0.042,-0.212 0.042,-0.254C0.042,-0.291 0.047,-0.326 0.058,-0.358C0.068,-0.39 0.084,-0.418 0.104,-0.441C0.124,-0.464 0.149,-0.482 0.178,-0.495C0.208,-0.508 0.242,-0.515 0.28,-0.515C0.316,-0.515 0.347,-0.509 0.374,-0.497C0.401,-0.486 0.426,-0.47 0.447,-0.449L0.423,-0.417Z" style="fill:white;fill-opacity:0.61;fill-rule:nonzero;"/>
            </g>
            <g transform="matrix(50,0,0,50,699.194,351.655)">
                <path d="M0.508,-0.507L0.225,0.15C0.222,0.156 0.218,0.162 0.214,0.166C0.209,0.17 0.202,0.172 0.193,0.172L0.127,0.172L0.22,-0.03L0.011,-0.507L0.088,-0.507C0.095,-0.507 0.101,-0.505 0.106,-0.501C0.11,-0.497 0.113,-0.493 0.115,-0.488L0.251,-0.169C0.256,-0.155 0.26,-0.14 0.264,-0.125C0.269,-0.141 0.274,-0.156 0.279,-0.17L0.411,-0.488C0.413,-0.493 0.416,-0.498 0.421,-0.501C0.426,-0.505 0.431,-0.507 0.437,-0.507L0.508,-0.507Z" style="fill:white;fill-opacity:0.61;fill-rule:nonzero;"/>
            </g>
            <g transform="matrix(50,0,0,50,724.969,351.655)">
                <path d="M0.165,-0.507L0.165,0.038C0.165,0.058 0.162,0.077 0.157,0.094C0.151,0.112 0.143,0.127 0.131,0.14C0.119,0.153 0.104,0.163 0.086,0.171C0.068,0.178 0.046,0.182 0.021,0.182C0.01,0.182 0,0.181 -0.009,0.18C-0.017,0.178 -0.027,0.175 -0.036,0.172L-0.032,0.124C-0.031,0.121 -0.03,0.119 -0.029,0.117C-0.027,0.116 -0.025,0.115 -0.023,0.115C-0.02,0.114 -0.016,0.114 -0.012,0.114C-0.008,0.114 -0.003,0.115 0.004,0.115C0.03,0.115 0.048,0.108 0.059,0.096C0.07,0.084 0.076,0.065 0.076,0.038L0.076,-0.507L0.165,-0.507ZM0.183,-0.666C0.183,-0.657 0.181,-0.649 0.178,-0.641C0.174,-0.634 0.17,-0.627 0.164,-0.621C0.158,-0.615 0.151,-0.611 0.144,-0.608C0.136,-0.604 0.128,-0.603 0.119,-0.603C0.11,-0.603 0.102,-0.604 0.095,-0.608C0.087,-0.611 0.081,-0.615 0.075,-0.621C0.069,-0.627 0.065,-0.634 0.062,-0.641C0.058,-0.649 0.057,-0.657 0.057,-0.666C0.057,-0.674 0.058,-0.682 0.062,-0.69C0.065,-0.698 0.069,-0.705 0.075,-0.711C0.081,-0.717 0.087,-0.721 0.095,-0.725C0.102,-0.728 0.11,-0.73 0.119,-0.73C0.128,-0.73 0.136,-0.728 0.144,-0.725C0.151,-0.721 0.158,-0.717 0.164,-0.711C0.17,-0.705 0.174,-0.698 0.178,-0.69C0.181,-0.682 0.183,-0.674 0.183,-0.666Z" style="fill:white;fill-opacity:0.61;fill-rule:nonzero;"/>
            </g>
            <g transform="matrix(50,0,0,50,736.969,351.655)">
                <path d="M0.155,-0.433C0.166,-0.445 0.177,-0.456 0.19,-0.467C0.202,-0.476 0.215,-0.485 0.229,-0.492C0.243,-0.499 0.257,-0.505 0.273,-0.509C0.288,-0.513 0.305,-0.515 0.323,-0.515C0.351,-0.515 0.375,-0.51 0.396,-0.501C0.417,-0.492 0.435,-0.479 0.449,-0.462C0.463,-0.445 0.474,-0.425 0.482,-0.401C0.489,-0.377 0.493,-0.351 0.493,-0.323L0.493,0L0.403,0L0.403,-0.323C0.403,-0.361 0.394,-0.391 0.377,-0.412C0.359,-0.433 0.333,-0.444 0.297,-0.444C0.271,-0.444 0.246,-0.437 0.223,-0.425C0.2,-0.412 0.179,-0.395 0.16,-0.373L0.16,0L0.071,0L0.071,-0.507L0.124,-0.507C0.137,-0.507 0.145,-0.5 0.148,-0.488L0.155,-0.433Z" style="fill:white;fill-opacity:0.61;fill-rule:nonzero;"/>
            </g>
            <g transform="matrix(50,0,0,50,764.244,351.655)">
                <path d="M0.508,-0.507L0.225,0.15C0.222,0.156 0.218,0.162 0.214,0.166C0.209,0.17 0.202,0.172 0.193,0.172L0.127,0.172L0.22,-0.03L0.011,-0.507L0.088,-0.507C0.095,-0.507 0.101,-0.505 0.106,-0.501C0.11,-0.497 0.113,-0.493 0.115,-0.488L0.251,-0.169C0.256,-0.155 0.26,-0.14 0.264,-0.125C0.269,-0.141 0.274,-0.156 0.279,-0.17L0.411,-0.488C0.413,-0.493 0.416,-0.498 0.421,-0.501C0.426,-0.505 0.431,-0.507 0.437,-0.507L0.508,-0.507Z" style="fill:white;fill-opacity:0.61;fill-rule:nonzero;"/>
            </g>
            <g transform="matrix(50,0,0,50,391.294,426.655)">
                <path d="M0.401,-0.386C0.384,-0.408 0.366,-0.424 0.347,-0.433C0.327,-0.442 0.306,-0.446 0.282,-0.446C0.235,-0.446 0.198,-0.429 0.173,-0.396C0.148,-0.362 0.135,-0.314 0.135,-0.252C0.135,-0.219 0.138,-0.19 0.144,-0.167C0.149,-0.143 0.158,-0.124 0.169,-0.109C0.18,-0.094 0.193,-0.083 0.209,-0.076C0.225,-0.069 0.243,-0.065 0.264,-0.065C0.293,-0.065 0.318,-0.072 0.34,-0.085C0.362,-0.098 0.382,-0.117 0.401,-0.142L0.401,-0.386ZM0.49,-0.737L0.49,0L0.437,0C0.424,0 0.416,-0.006 0.413,-0.019L0.405,-0.08C0.383,-0.054 0.358,-0.033 0.331,-0.017C0.303,-0.001 0.271,0.007 0.235,0.007C0.206,0.007 0.179,0.001 0.156,-0.01C0.132,-0.021 0.112,-0.037 0.095,-0.059C0.078,-0.081 0.066,-0.108 0.057,-0.14C0.048,-0.172 0.043,-0.21 0.043,-0.252C0.043,-0.289 0.048,-0.324 0.058,-0.356C0.068,-0.388 0.082,-0.416 0.101,-0.44C0.12,-0.463 0.143,-0.482 0.17,-0.495C0.197,-0.509 0.228,-0.516 0.262,-0.516C0.293,-0.516 0.319,-0.51 0.341,-0.5C0.363,-0.489 0.383,-0.475 0.401,-0.456L0.401,-0.737L0.49,-0.737Z" style="fill:white;fill-opacity:0.61;fill-rule:nonzero;"/>
            </g>
            <g transform="matrix(50,0,0,50,419.294,426.655)">
                <rect x="0.074" y="-0.737" width="0.089" height="0.737" style="fill:white;fill-opacity:0.61;fill-rule:nonzero;"/>
            </g>
            <g transform="matrix(50,0,0,50,431.094,426.655)">
                <path d="M0.345,-0.228C0.304,-0.227 0.269,-0.223 0.24,-0.218C0.211,-0.213 0.188,-0.206 0.17,-0.198C0.152,-0.19 0.138,-0.18 0.13,-0.169C0.122,-0.157 0.118,-0.145 0.118,-0.131C0.118,-0.117 0.12,-0.106 0.125,-0.096C0.129,-0.086 0.135,-0.078 0.142,-0.072C0.15,-0.066 0.159,-0.062 0.169,-0.059C0.179,-0.056 0.19,-0.055 0.202,-0.055C0.217,-0.055 0.232,-0.056 0.245,-0.059C0.258,-0.062 0.27,-0.067 0.281,-0.073C0.293,-0.079 0.304,-0.086 0.314,-0.095C0.325,-0.103 0.335,-0.112 0.345,-0.123L0.345,-0.228ZM0.058,-0.435C0.086,-0.462 0.116,-0.482 0.148,-0.496C0.18,-0.509 0.216,-0.516 0.256,-0.516C0.284,-0.516 0.309,-0.511 0.331,-0.502C0.353,-0.492 0.372,-0.479 0.387,-0.463C0.402,-0.446 0.413,-0.426 0.421,-0.402C0.428,-0.378 0.432,-0.352 0.432,-0.324L0.432,0L0.393,0C0.384,0 0.377,-0.001 0.373,-0.004C0.368,-0.007 0.364,-0.013 0.362,-0.021L0.352,-0.069C0.338,-0.057 0.325,-0.046 0.313,-0.036C0.3,-0.027 0.286,-0.019 0.273,-0.012C0.259,-0.006 0.244,-0.001 0.228,0.003C0.212,0.006 0.194,0.008 0.175,0.008C0.155,0.008 0.137,0.005 0.12,0C0.102,-0.006 0.087,-0.014 0.074,-0.025C0.061,-0.036 0.051,-0.05 0.044,-0.067C0.036,-0.084 0.033,-0.103 0.033,-0.127C0.033,-0.147 0.038,-0.166 0.049,-0.184C0.06,-0.203 0.078,-0.219 0.103,-0.234C0.127,-0.248 0.159,-0.26 0.199,-0.269C0.239,-0.278 0.287,-0.283 0.345,-0.285L0.345,-0.324C0.345,-0.363 0.337,-0.393 0.32,-0.413C0.303,-0.433 0.278,-0.444 0.245,-0.444C0.223,-0.444 0.205,-0.441 0.19,-0.435C0.175,-0.43 0.162,-0.424 0.151,-0.417C0.14,-0.41 0.131,-0.404 0.123,-0.398C0.115,-0.393 0.108,-0.39 0.1,-0.39C0.094,-0.39 0.089,-0.392 0.085,-0.395C0.08,-0.398 0.077,-0.402 0.074,-0.407L0.058,-0.435Z" style="fill:white;fill-opacity:0.61;fill-rule:nonzero;"/>
            </g>
            <g transform="matrix(50,0,0,50,468.744,426.655)">
                <path d="M0.713,-0.358C0.713,-0.304 0.704,-0.256 0.687,-0.212C0.67,-0.167 0.646,-0.13 0.615,-0.099C0.584,-0.067 0.547,-0.043 0.503,-0.026C0.46,-0.009 0.412,0 0.359,0L0.092,0L0.092,-0.717L0.359,-0.717C0.412,-0.717 0.46,-0.708 0.503,-0.691C0.547,-0.674 0.584,-0.649 0.615,-0.618C0.646,-0.586 0.67,-0.549 0.687,-0.505C0.704,-0.46 0.713,-0.412 0.713,-0.358ZM0.613,-0.358C0.613,-0.402 0.607,-0.441 0.595,-0.476C0.583,-0.511 0.566,-0.54 0.544,-0.564C0.522,-0.588 0.495,-0.606 0.464,-0.619C0.433,-0.632 0.398,-0.638 0.359,-0.638L0.189,-0.638L0.189,-0.079L0.359,-0.079C0.398,-0.079 0.433,-0.085 0.464,-0.098C0.495,-0.11 0.522,-0.128 0.544,-0.152C0.566,-0.176 0.583,-0.205 0.595,-0.24C0.607,-0.275 0.613,-0.314 0.613,-0.358Z" style="fill:white;fill-opacity:0.61;fill-rule:nonzero;"/>
            </g>
            <g transform="matrix(50,0,0,50,506.219,426.655)">
                <path d="M0.42,-0.469C0.42,-0.462 0.419,-0.456 0.417,-0.45C0.415,-0.444 0.412,-0.439 0.408,-0.435L0.134,-0.07L0.411,-0.07L0.411,0L0.029,0L0.029,-0.037C0.029,-0.041 0.03,-0.046 0.032,-0.052C0.034,-0.058 0.037,-0.064 0.041,-0.069L0.317,-0.437L0.045,-0.437L0.045,-0.507L0.42,-0.507L0.42,-0.469Z" style="fill:white;fill-opacity:0.61;fill-rule:nonzero;"/>
            </g>
            <g transform="matrix(50,0,0,50,528.819,426.655)">
                <path d="M0.165,-0.507L0.165,0L0.076,0L0.076,-0.507L0.165,-0.507ZM0.184,-0.666C0.184,-0.657 0.182,-0.649 0.178,-0.641C0.175,-0.634 0.17,-0.627 0.164,-0.621C0.158,-0.615 0.152,-0.611 0.144,-0.608C0.136,-0.604 0.128,-0.603 0.119,-0.603C0.11,-0.603 0.102,-0.604 0.095,-0.608C0.087,-0.611 0.081,-0.615 0.075,-0.621C0.069,-0.627 0.065,-0.634 0.062,-0.641C0.058,-0.649 0.057,-0.657 0.057,-0.666C0.057,-0.674 0.058,-0.682 0.062,-0.69C0.065,-0.698 0.069,-0.705 0.075,-0.711C0.081,-0.717 0.087,-0.721 0.095,-0.725C0.102,-0.728 0.11,-0.73 0.119,-0.73C0.128,-0.73 0.136,-0.728 0.144,-0.725C0.152,-0.721 0.158,-0.717 0.164,-0.711C0.17,-0.705 0.175,-0.698 0.178,-0.69C0.182,-0.682 0.184,-0.674 0.184,-0.666Z" style="fill:white;fill-opacity:0.61;fill-rule:nonzero;"/>
            </g>
            <g transform="matrix(50,0,0,50,540.819,426.655)">
                <path d="M0.41,-0.309C0.41,-0.329 0.407,-0.348 0.401,-0.365C0.395,-0.382 0.386,-0.397 0.375,-0.41C0.364,-0.422 0.35,-0.432 0.335,-0.439C0.319,-0.446 0.3,-0.449 0.28,-0.449C0.237,-0.449 0.204,-0.437 0.179,-0.412C0.154,-0.387 0.139,-0.353 0.133,-0.309L0.41,-0.309ZM0.482,-0.071C0.47,-0.058 0.457,-0.046 0.442,-0.036C0.427,-0.026 0.41,-0.018 0.393,-0.012C0.375,-0.006 0.357,-0.001 0.339,0.002C0.32,0.005 0.301,0.007 0.283,0.007C0.248,0.007 0.216,0.001 0.186,-0.011C0.157,-0.023 0.131,-0.04 0.11,-0.063C0.088,-0.086 0.071,-0.114 0.06,-0.148C0.048,-0.181 0.042,-0.22 0.042,-0.264C0.042,-0.299 0.047,-0.332 0.058,-0.363C0.069,-0.393 0.084,-0.42 0.105,-0.442C0.125,-0.465 0.15,-0.482 0.179,-0.495C0.208,-0.508 0.241,-0.515 0.278,-0.515C0.308,-0.515 0.336,-0.509 0.362,-0.499C0.388,-0.489 0.41,-0.474 0.429,-0.455C0.448,-0.436 0.463,-0.412 0.474,-0.384C0.484,-0.356 0.49,-0.324 0.49,-0.288C0.49,-0.274 0.488,-0.265 0.485,-0.26C0.482,-0.255 0.476,-0.253 0.468,-0.253L0.13,-0.253C0.131,-0.221 0.135,-0.193 0.143,-0.17C0.151,-0.146 0.162,-0.126 0.176,-0.11C0.19,-0.094 0.206,-0.083 0.226,-0.075C0.245,-0.067 0.267,-0.063 0.291,-0.063C0.313,-0.063 0.332,-0.066 0.348,-0.071C0.364,-0.076 0.378,-0.082 0.39,-0.088C0.402,-0.094 0.411,-0.099 0.419,-0.104C0.427,-0.109 0.434,-0.112 0.44,-0.112C0.447,-0.112 0.452,-0.109 0.457,-0.104L0.482,-0.071Z" style="fill:white;fill-opacity:0.61;fill-rule:nonzero;"/>
            </g>
            <g transform="matrix(50,0,0,50,567.219,426.655)">
                <path d="M0.423,-0.417C0.42,-0.413 0.418,-0.41 0.415,-0.408C0.412,-0.406 0.409,-0.405 0.404,-0.405C0.399,-0.405 0.394,-0.407 0.388,-0.411C0.382,-0.415 0.374,-0.42 0.365,-0.425C0.356,-0.43 0.346,-0.435 0.333,-0.439C0.32,-0.443 0.304,-0.445 0.286,-0.445C0.261,-0.445 0.239,-0.441 0.22,-0.432C0.201,-0.423 0.185,-0.41 0.172,-0.394C0.159,-0.377 0.149,-0.357 0.143,-0.333C0.136,-0.309 0.133,-0.283 0.133,-0.254C0.133,-0.223 0.137,-0.196 0.144,-0.172C0.151,-0.148 0.16,-0.128 0.173,-0.112C0.186,-0.096 0.202,-0.083 0.22,-0.075C0.238,-0.066 0.258,-0.062 0.281,-0.062C0.303,-0.062 0.321,-0.065 0.335,-0.07C0.349,-0.075 0.36,-0.081 0.369,-0.087C0.378,-0.093 0.386,-0.099 0.392,-0.104C0.398,-0.109 0.405,-0.112 0.411,-0.112C0.418,-0.112 0.424,-0.109 0.428,-0.104L0.453,-0.071C0.442,-0.057 0.429,-0.046 0.415,-0.036C0.401,-0.026 0.386,-0.018 0.37,-0.012C0.354,-0.005 0.337,-0.001 0.319,0.003C0.301,0.006 0.283,0.007 0.265,0.007C0.233,0.007 0.204,0.001 0.177,-0.011C0.15,-0.022 0.126,-0.039 0.106,-0.061C0.086,-0.083 0.07,-0.111 0.059,-0.143C0.048,-0.175 0.042,-0.212 0.042,-0.254C0.042,-0.291 0.047,-0.326 0.058,-0.358C0.068,-0.39 0.084,-0.418 0.104,-0.441C0.124,-0.464 0.149,-0.482 0.178,-0.495C0.208,-0.508 0.242,-0.515 0.28,-0.515C0.316,-0.515 0.347,-0.509 0.374,-0.497C0.401,-0.486 0.426,-0.47 0.447,-0.449L0.423,-0.417Z" style="fill:white;fill-opacity:0.61;fill-rule:nonzero;"/>
            </g>
            <g transform="matrix(50,0,0,50,591.094,426.655)">
                <path d="M0.165,-0.507L0.165,0L0.076,0L0.076,-0.507L0.165,-0.507ZM0.184,-0.666C0.184,-0.657 0.182,-0.649 0.178,-0.641C0.175,-0.634 0.17,-0.627 0.164,-0.621C0.158,-0.615 0.152,-0.611 0.144,-0.608C0.136,-0.604 0.128,-0.603 0.119,-0.603C0.11,-0.603 0.102,-0.604 0.095,-0.608C0.087,-0.611 0.081,-0.615 0.075,-0.621C0.069,-0.627 0.065,-0.634 0.062,-0.641C0.058,-0.649 0.057,-0.657 0.057,-0.666C0.057,-0.674 0.058,-0.682 0.062,-0.69C0.065,-0.698 0.069,-0.705 0.075,-0.711C0.081,-0.717 0.087,-0.721 0.095,-0.725C0.102,-0.728 0.11,-0.73 0.119,-0.73C0.128,-0.73 0.136,-0.728 0.144,-0.725C0.152,-0.721 0.158,-0.717 0.164,-0.711C0.17,-0.705 0.175,-0.698 0.178,-0.69C0.182,-0.682 0.184,-0.674 0.184,-0.666Z" style="fill:white;fill-opacity:0.61;fill-rule:nonzero;"/>
            </g>
            <g transform="matrix(50,0,0,50,614.869,426.655)">
                <path d="M0.769,-0.507L0.605,0L0.535,0C0.526,0 0.52,-0.006 0.517,-0.017L0.405,-0.361C0.402,-0.368 0.4,-0.376 0.398,-0.384C0.396,-0.392 0.395,-0.399 0.393,-0.407C0.391,-0.399 0.39,-0.392 0.388,-0.384C0.386,-0.376 0.384,-0.368 0.382,-0.36L0.268,-0.017C0.265,-0.006 0.258,0 0.248,0L0.181,0L0.017,-0.507L0.087,-0.507C0.094,-0.507 0.099,-0.505 0.104,-0.501C0.109,-0.497 0.112,-0.493 0.114,-0.488L0.211,-0.162C0.217,-0.138 0.221,-0.115 0.225,-0.094C0.228,-0.105 0.231,-0.116 0.234,-0.128C0.237,-0.139 0.24,-0.15 0.244,-0.162L0.351,-0.49C0.353,-0.495 0.356,-0.499 0.36,-0.503C0.364,-0.506 0.369,-0.508 0.375,-0.508L0.414,-0.508C0.421,-0.508 0.426,-0.506 0.431,-0.503C0.435,-0.499 0.438,-0.495 0.44,-0.49L0.544,-0.162C0.548,-0.15 0.551,-0.139 0.554,-0.128C0.557,-0.116 0.56,-0.105 0.563,-0.094C0.564,-0.105 0.566,-0.116 0.569,-0.127C0.571,-0.138 0.574,-0.15 0.577,-0.162L0.676,-0.488C0.678,-0.493 0.681,-0.498 0.686,-0.501C0.69,-0.505 0.696,-0.507 0.702,-0.507L0.769,-0.507Z" style="fill:white;fill-opacity:0.61;fill-rule:nonzero;"/>
            </g>
            <g transform="matrix(50,0,0,50,664.244,426.655)">
                <path d="M0.472,-0.266L0.36,-0.558C0.356,-0.566 0.353,-0.576 0.349,-0.588C0.345,-0.599 0.342,-0.612 0.339,-0.625C0.332,-0.598 0.324,-0.575 0.317,-0.557L0.205,-0.266L0.472,-0.266ZM0.674,0L0.599,0C0.59,0 0.583,-0.002 0.578,-0.007C0.573,-0.011 0.569,-0.016 0.566,-0.023L0.499,-0.196L0.178,-0.196L0.111,-0.023C0.109,-0.017 0.105,-0.012 0.099,-0.007C0.093,-0.002 0.086,0 0.078,0L0.003,0L0.29,-0.717L0.388,-0.717L0.674,0Z" style="fill:white;fill-opacity:0.61;fill-rule:nonzero;"/>
            </g>
            <g transform="matrix(50,0,0,50,697.994,426.655)">
                <path d="M0.071,0L0.071,-0.507L0.124,-0.507C0.137,-0.507 0.145,-0.5 0.148,-0.488L0.154,-0.436C0.173,-0.459 0.194,-0.478 0.217,-0.493C0.24,-0.507 0.267,-0.515 0.298,-0.515C0.332,-0.515 0.36,-0.505 0.381,-0.486C0.402,-0.467 0.417,-0.441 0.427,-0.409C0.434,-0.427 0.443,-0.443 0.455,-0.457C0.466,-0.47 0.479,-0.481 0.494,-0.49C0.508,-0.498 0.523,-0.505 0.539,-0.509C0.555,-0.513 0.572,-0.515 0.589,-0.515C0.615,-0.515 0.639,-0.51 0.66,-0.502C0.681,-0.493 0.698,-0.481 0.713,-0.465C0.727,-0.448 0.738,-0.428 0.746,-0.404C0.754,-0.38 0.757,-0.353 0.758,-0.323L0.758,0L0.668,0L0.668,-0.323C0.668,-0.362 0.659,-0.392 0.642,-0.413C0.625,-0.433 0.6,-0.444 0.567,-0.444C0.552,-0.444 0.538,-0.441 0.525,-0.436C0.512,-0.431 0.501,-0.423 0.491,-0.413C0.481,-0.403 0.473,-0.39 0.467,-0.375C0.461,-0.36 0.458,-0.342 0.458,-0.323L0.458,0L0.369,0L0.369,-0.323C0.369,-0.363 0.36,-0.394 0.344,-0.414C0.328,-0.434 0.304,-0.444 0.273,-0.444C0.251,-0.444 0.23,-0.438 0.212,-0.426C0.193,-0.414 0.176,-0.398 0.16,-0.378L0.16,0L0.071,0Z" style="fill:white;fill-opacity:0.61;fill-rule:nonzero;"/>
            </g>
            <g transform="matrix(50,0,0,50,739.119,426.655)">
                <path d="M0.41,-0.309C0.41,-0.329 0.407,-0.348 0.401,-0.365C0.395,-0.382 0.386,-0.397 0.375,-0.41C0.364,-0.422 0.35,-0.432 0.335,-0.439C0.319,-0.446 0.3,-0.449 0.28,-0.449C0.237,-0.449 0.204,-0.437 0.179,-0.412C0.154,-0.387 0.139,-0.353 0.133,-0.309L0.41,-0.309ZM0.482,-0.071C0.47,-0.058 0.457,-0.046 0.442,-0.036C0.427,-0.026 0.41,-0.018 0.393,-0.012C0.375,-0.006 0.357,-0.001 0.339,0.002C0.32,0.005 0.301,0.007 0.283,0.007C0.248,0.007 0.216,0.001 0.186,-0.011C0.157,-0.023 0.131,-0.04 0.11,-0.063C0.088,-0.086 0.071,-0.114 0.06,-0.148C0.048,-0.181 0.042,-0.22 0.042,-0.264C0.042,-0.299 0.047,-0.332 0.058,-0.363C0.069,-0.393 0.084,-0.42 0.105,-0.442C0.125,-0.465 0.15,-0.482 0.179,-0.495C0.208,-0.508 0.241,-0.515 0.278,-0.515C0.308,-0.515 0.336,-0.509 0.362,-0.499C0.388,-0.489 0.41,-0.474 0.429,-0.455C0.448,-0.436 0.463,-0.412 0.474,-0.384C0.484,-0.356 0.49,-0.324 0.49,-0.288C0.49,-0.274 0.488,-0.265 0.485,-0.26C0.482,-0.255 0.476,-0.253 0.468,-0.253L0.13,-0.253C0.131,-0.221 0.135,-0.193 0.143,-0.17C0.151,-0.146 0.162,-0.126 0.176,-0.11C0.19,-0.094 0.206,-0.083 0.226,-0.075C0.245,-0.067 0.267,-0.063 0.291,-0.063C0.313,-0.063 0.332,-0.066 0.348,-0.071C0.364,-0.076 0.378,-0.082 0.39,-0.088C0.402,-0.094 0.411,-0.099 0.419,-0.104C0.427,-0.109 0.434,-0.112 0.44,-0.112C0.447,-0.112 0.452,-0.109 0.457,-0.104L0.482,-0.071Z" style="fill:white;fill-opacity:0.61;fill-rule:nonzero;"/>
            </g>
            <g transform="matrix(50,0,0,50,765.519,426.655)">
                <path d="M0.155,-0.405C0.171,-0.44 0.191,-0.467 0.214,-0.486C0.237,-0.506 0.266,-0.516 0.3,-0.516C0.31,-0.516 0.32,-0.514 0.33,-0.512C0.34,-0.51 0.349,-0.506 0.357,-0.501L0.35,-0.435C0.348,-0.426 0.343,-0.422 0.335,-0.422C0.33,-0.422 0.324,-0.423 0.315,-0.425C0.306,-0.427 0.295,-0.428 0.284,-0.428C0.268,-0.428 0.254,-0.426 0.241,-0.421C0.229,-0.416 0.218,-0.409 0.208,-0.4C0.198,-0.391 0.189,-0.38 0.181,-0.366C0.173,-0.353 0.166,-0.337 0.16,-0.32L0.16,0L0.071,0L0.071,-0.507L0.122,-0.507C0.131,-0.507 0.138,-0.505 0.142,-0.501C0.145,-0.497 0.148,-0.491 0.149,-0.482L0.155,-0.405Z" style="fill:white;fill-opacity:0.61;fill-rule:nonzero;"/>
            </g>
            <g transform="matrix(50,0,0,50,783.719,426.655)">
                <path d="M0.508,-0.507L0.225,0.15C0.222,0.156 0.218,0.162 0.214,0.166C0.209,0.17 0.202,0.172 0.193,0.172L0.127,0.172L0.22,-0.03L0.011,-0.507L0.088,-0.507C0.095,-0.507 0.101,-0.505 0.106,-0.501C0.11,-0.497 0.113,-0.493 0.115,-0.488L0.251,-0.169C0.256,-0.155 0.26,-0.14 0.264,-0.125C0.269,-0.141 0.274,-0.156 0.279,-0.17L0.411,-0.488C0.413,-0.493 0.416,-0.498 0.421,-0.501C0.426,-0.505 0.431,-0.507 0.437,-0.507L0.508,-0.507Z" style="fill:white;fill-opacity:0.61;fill-rule:nonzero;"/>
            </g>
            <g transform="matrix(50,0,0,50,808.794,426.655)">
                <path d="M0.423,-0.417C0.42,-0.413 0.418,-0.41 0.415,-0.408C0.412,-0.406 0.409,-0.405 0.404,-0.405C0.399,-0.405 0.394,-0.407 0.388,-0.411C0.382,-0.415 0.374,-0.42 0.365,-0.425C0.356,-0.43 0.346,-0.435 0.333,-0.439C0.32,-0.443 0.304,-0.445 0.286,-0.445C0.261,-0.445 0.239,-0.441 0.22,-0.432C0.201,-0.423 0.185,-0.41 0.172,-0.394C0.159,-0.377 0.149,-0.357 0.143,-0.333C0.136,-0.309 0.133,-0.283 0.133,-0.254C0.133,-0.223 0.137,-0.196 0.144,-0.172C0.151,-0.148 0.16,-0.128 0.173,-0.112C0.186,-0.096 0.202,-0.083 0.22,-0.075C0.238,-0.066 0.258,-0.062 0.281,-0.062C0.303,-0.062 0.321,-0.065 0.335,-0.07C0.349,-0.075 0.36,-0.081 0.369,-0.087C0.378,-0.093 0.386,-0.099 0.392,-0.104C0.398,-0.109 0.405,-0.112 0.411,-0.112C0.418,-0.112 0.424,-0.109 0.428,-0.104L0.453,-0.071C0.442,-0.057 0.429,-0.046 0.415,-0.036C0.401,-0.026 0.386,-0.018 0.37,-0.012C0.354,-0.005 0.337,-0.001 0.319,0.003C0.301,0.006 0.283,0.007 0.265,0.007C0.233,0.007 0.204,0.001 0.177,-0.011C0.15,-0.022 0.126,-0.039 0.106,-0.061C0.086,-0.083 0.07,-0.111 0.059,-0.143C0.048,-0.175 0.042,-0.212 0.042,-0.254C0.042,-0.291 0.047,-0.326 0.058,-0.358C0.068,-0.39 0.084,-0.418 0.104,-0.441C0.124,-0.464 0.149,-0.482 0.178,-0.495C0.208,-0.508 0.242,-0.515 0.28,-0.515C0.316,-0.515 0.347,-0.509 0.374,-0.497C0.401,-0.486 0.426,-0.47 0.447,-0.449L0.423,-0.417Z" style="fill:white;fill-opacity:0.61;fill-rule:nonzero;"/>
            </g>
            <g transform="matrix(50,0,0,50,832.219,426.655)">
                <path d="M0.41,-0.309C0.41,-0.329 0.407,-0.348 0.401,-0.365C0.395,-0.382 0.386,-0.397 0.375,-0.41C0.364,-0.422 0.35,-0.432 0.335,-0.439C0.319,-0.446 0.3,-0.449 0.28,-0.449C0.237,-0.449 0.204,-0.437 0.179,-0.412C0.154,-0.387 0.139,-0.353 0.133,-0.309L0.41,-0.309ZM0.482,-0.071C0.47,-0.058 0.457,-0.046 0.442,-0.036C0.427,-0.026 0.41,-0.018 0.393,-0.012C0.375,-0.006 0.357,-0.001 0.339,0.002C0.32,0.005 0.301,0.007 0.283,0.007C0.248,0.007 0.216,0.001 0.186,-0.011C0.157,-0.023 0.131,-0.04 0.11,-0.063C0.088,-0.086 0.071,-0.114 0.06,-0.148C0.048,-0.181 0.042,-0.22 0.042,-0.264C0.042,-0.299 0.047,-0.332 0.058,-0.363C0.069,-0.393 0.084,-0.42 0.105,-0.442C0.125,-0.465 0.15,-0.482 0.179,-0.495C0.208,-0.508 0.241,-0.515 0.278,-0.515C0.308,-0.515 0.336,-0.509 0.362,-0.499C0.388,-0.489 0.41,-0.474 0.429,-0.455C0.448,-0.436 0.463,-0.412 0.474,-0.384C0.484,-0.356 0.49,-0.324 0.49,-0.288C0.49,-0.274 0.488,-0.265 0.485,-0.26C0.482,-0.255 0.476,-0.253 0.468,-0.253L0.13,-0.253C0.131,-0.221 0.135,-0.193 0.143,-0.17C0.151,-0.146 0.162,-0.126 0.176,-0.11C0.19,-0.094 0.206,-0.083 0.226,-0.075C0.245,-0.067 0.267,-0.063 0.291,-0.063C0.313,-0.063 0.332,-0.066 0.348,-0.071C0.364,-0.076 0.378,-0.082 0.39,-0.088C0.402,-0.094 0.411,-0.099 0.419,-0.104C0.427,-0.109 0.434,-0.112 0.44,-0.112C0.447,-0.112 0.452,-0.109 0.457,-0.104L0.482,-0.071Z" style="fill:white;fill-opacity:0.61;fill-rule:nonzero;"/>
            </g>
        </g>
    </g>
    <g id="g12" transform="matrix(0.133333,0,0,-0.133333,267.667,1351.33)">
        <path id="path14" d="M625.051,1126.43L549.844,757.176L697,757.176L621.211,1126.43L625.051,1126.43ZM369.527,1407.35L975.988,1407.35L975.988,1112.23L890.043,1112.23L1064.1,462.172L1133.75,462.172L1133.75,179.555L692.516,179.555L690.199,462.172L769.891,462.172L736.109,605.895L512.262,605.895L474.645,462.172L549.137,462.172L549.137,179.555L217.535,179.555L217.535,462.172L283.719,462.172L448.555,1112.23L369.527,1112.23L369.527,1407.35" style="fill:white;"/>
        <path id="path18" d="M4569.63,1126.43L4494.43,757.176L4641.59,757.176L4565.79,1126.43L4569.63,1126.43ZM4314.11,1407.35L4920.57,1407.35L4920.57,1112.23L4834.63,1112.23L5008.68,462.172L5078.33,462.172L5078.33,179.555L4637.1,179.555L4634.79,462.172L4714.47,462.172L4680.69,605.895L4456.84,605.895L4419.23,462.172L4493.72,462.172L4493.72,179.555L4162.12,179.555L4162.12,462.172L4228.3,462.172L4393.14,1112.23L4314.11,1112.23L4314.11,1407.35" style="fill:white;"/>
        <path id="path22" d="M1782.63,179.832L1584.52,179.832L1584.52,316.406L1615.02,316.406L1611.02,627.863L1498.62,179.379L1440.9,179.379L1319.44,626.949L1319.44,316.406L1350.29,316.406L1350.29,179.832L1201.81,179.832L1201.81,316.406L1232.31,316.406L1232.31,604.984L1201.81,604.984L1201.81,757.043L1411.77,757.043L1492.75,534.988L1572.67,757.043L1782.63,757.043L1782.63,604.984L1752.12,604.984L1752.12,316.406L1782.63,316.406L1782.63,179.832" style="fill:white;"/>
        <path id="path26" d="M2237.07,179.379L1872.71,179.379L1872.71,317.84L1906.92,317.84L1906.92,605.172L1872.71,605.172L1872.71,757.457L2237.07,757.457L2237.07,564.449L2139.38,564.449L2139.38,605.172L2059.82,605.172L2059.82,533.305L2122.43,533.305L2122.43,403.793L2059.82,403.793L2059.82,317.84L2140.95,317.84L2140.95,360.191L2237.07,360.191L2237.07,179.379" style="fill:white;"/>
        <path id="path30" d="M3574.78,607.188L3543.13,607.188L3441.82,408.656L3441.82,314.082L3475.02,314.082L3475.02,179.824L3242.75,179.824L3242.75,314.082L3295.11,315.984L3295.11,406.754L3178.65,605.285L3146.22,605.285L3146.22,757.457L3361.61,757.457L3361.61,605.285L3332.14,605.285L3382.11,518.066L3442.82,605.285L3414.13,605.285L3414.13,757.457L3574.78,757.457L3574.78,607.188" style="fill:white;"/>
        <path id="path34" d="M4092.17,181.184L3873.57,181.184L3873.57,323.453L3897.47,323.453L3810.68,466.984L3810.68,323.453L3842.3,323.453L3842.3,181.184L3622.49,181.184L3622.49,323.453L3653.75,323.453L3653.75,605.645L3622.49,605.645L3622.49,757.453L3839.04,757.453L3839.04,605.645L3810.68,605.645L3810.68,507.922L3909.43,607.836L3884.95,605.645L3884.95,757.453L4076.9,757.453L4076.9,605.645L4051.34,605.645L3972.24,517.004L4067.33,323.453L4092.17,323.453L4092.17,181.184" style="fill:white;"/>
        <rect id="path38" x="8.238" y="8.945" width="5282.18" height="109.012" style="fill:rgb(210,7,58);"/>
        <path id="path44" d="M5287.88,1111.98L4610.41,1995.13L4316.49,1610.14L2842.25,1610.14L2683.07,1770.38L2520.86,1608.95L973.93,1610.14L681.762,1991.49L8.016,1112.2L136.02,1112.2L681.762,1821.63L998.117,1406.93L1130.04,1406.93L1055.39,1503.7L2415.03,1503.7L2320.17,1406.17L2464.88,1406.17L2683.07,1623.68L2904.08,1405.89L3048.95,1405.89L2950.18,1503.7L4237.38,1503.7L4163.32,1406.32L4291.34,1406.33L4613.54,1831.67L5163.76,1111.72L5287.88,1111.98Z" style="fill:rgb(210,7,56);fill-rule:nonzero;"/>
        <path id="path46" d="M2290.71,1286.42L2779.62,1286.42C2839.93,1286.42 2896.01,1277.59 2947.4,1260.19C2998.79,1242.79 3044.59,1223.54 3068.03,1188.66C3171.38,1034.94 3206.04,852.738 3048.94,676.652C3074.69,593.727 3115.62,470.734 3141.52,470.734L3196.52,470.734L3196.52,179.957L3085.45,179.957C3027.27,179.957 2910.3,172.313 2879.36,212.383C2814.16,296.813 2759.42,586.84 2742.45,586.84L2682.47,586.84L2682.47,471.305L2731.18,471.309L2731.18,179.957L2293.27,179.957L2293.27,471.008L2356.9,471.008L2356.9,994.879L2290.71,994.879L2290.71,1286.42" style="fill:white;"/>
        <path id="path50" d="M2375.57,1201.16L2772.05,1201.16C2820.97,1201.16 2866.44,1193.66 2908.12,1178.86C2949.8,1164.06 2986.93,1147.7 3005.95,1118.04C3089.76,987.363 3094.8,836.297 2967.39,686.594C2988.28,616.09 3053.52,384.605 3074.53,384.605L3110.14,384.605L3110.14,260.742L3020.07,260.742C2972.89,260.742 2965.6,256.645 2940.51,290.703C2887.64,362.469 2818.51,670.391 2795.79,670.117L2599.8,667.723L2599.8,384.086L2656.34,384.086L2656.34,260.742L2377.64,260.742L2377.64,384.023L2429.24,384.023L2429.24,1079.18L2375.57,1079.18L2375.57,1201.16" style="fill:rgb(18,136,91);"/>
        <path id="path54" d="M2600.52,1112.08L2600.52,757.898L2734.35,757.898C2793.79,757.898 2835.46,767.84 2860.19,787.324C2884.77,806.68 2897.5,839.398 2897.5,885.043L2897.5,997.863C2897.5,1055.2 2853.21,1112.08 2765.97,1112.08L2600.52,1112.08" style="fill:white;"/>
        <path id="path58" d="M2683.11,1023.68L2683.11,840.813L2740.81,840.813C2766.93,840.813 2785.23,845.652 2796.11,855.113C2806.9,864.52 2812.5,880.426 2812.5,902.602L2812.5,968.176C2812.5,996.035 2793.04,1023.68 2754.71,1023.68L2683.11,1023.68" style="fill:rgb(18,136,91);"/>
        <g transform="matrix(7.5,0,0,-7.5,-449.69,7444.38)">
            <g transform="matrix(90,0,0,90,73.6283,1529.56)">
                <path d="M0.28,-0.317C0.313,-0.317 0.342,-0.321 0.369,-0.331C0.395,-0.34 0.418,-0.353 0.436,-0.369C0.455,-0.385 0.469,-0.405 0.479,-0.427C0.489,-0.449 0.494,-0.473 0.494,-0.499C0.494,-0.558 0.476,-0.604 0.441,-0.635C0.405,-0.666 0.351,-0.681 0.28,-0.681L0.139,-0.681L0.139,-0.317L0.28,-0.317ZM0.28,-0.703C0.359,-0.703 0.419,-0.686 0.46,-0.652C0.501,-0.618 0.522,-0.567 0.522,-0.499C0.522,-0.469 0.516,-0.442 0.505,-0.417C0.493,-0.392 0.477,-0.37 0.456,-0.352C0.434,-0.334 0.409,-0.319 0.379,-0.309C0.349,-0.299 0.316,-0.294 0.28,-0.294L0.139,-0.294L0.139,0L0.112,0L0.112,-0.703L0.28,-0.703Z" style="fill:white;fill-rule:nonzero;"/>
            </g>
            <g transform="matrix(90,0,0,90,121.733,1529.56)">
                <path d="M0.277,-0.501C0.312,-0.501 0.343,-0.495 0.37,-0.483C0.397,-0.471 0.42,-0.453 0.439,-0.431C0.457,-0.409 0.471,-0.382 0.481,-0.351C0.491,-0.32 0.496,-0.285 0.496,-0.247C0.496,-0.208 0.491,-0.173 0.481,-0.142C0.471,-0.111 0.457,-0.085 0.439,-0.063C0.42,-0.041 0.397,-0.024 0.37,-0.012C0.343,0 0.312,0.006 0.277,0.006C0.242,0.006 0.21,0 0.183,-0.012C0.156,-0.024 0.133,-0.041 0.115,-0.063C0.096,-0.085 0.082,-0.111 0.072,-0.142C0.062,-0.173 0.058,-0.208 0.058,-0.247C0.058,-0.285 0.062,-0.32 0.072,-0.351C0.082,-0.382 0.096,-0.409 0.115,-0.431C0.133,-0.453 0.156,-0.471 0.183,-0.483C0.21,-0.495 0.242,-0.501 0.277,-0.501ZM0.277,-0.015C0.309,-0.015 0.337,-0.021 0.361,-0.032C0.385,-0.043 0.405,-0.058 0.421,-0.079C0.437,-0.099 0.449,-0.123 0.457,-0.152C0.465,-0.18 0.469,-0.212 0.469,-0.247C0.469,-0.282 0.465,-0.313 0.457,-0.342C0.449,-0.371 0.437,-0.395 0.421,-0.416C0.405,-0.436 0.385,-0.452 0.361,-0.463C0.337,-0.474 0.309,-0.48 0.277,-0.48C0.245,-0.48 0.217,-0.474 0.193,-0.463C0.169,-0.452 0.148,-0.436 0.132,-0.416C0.116,-0.395 0.104,-0.371 0.096,-0.342C0.088,-0.313 0.084,-0.282 0.084,-0.247C0.084,-0.212 0.088,-0.18 0.096,-0.152C0.104,-0.123 0.116,-0.099 0.132,-0.079C0.148,-0.058 0.169,-0.043 0.193,-0.032C0.217,-0.021 0.245,-0.015 0.277,-0.015Z" style="fill:white;fill-rule:nonzero;"/>
            </g>
            <g transform="matrix(90,0,0,90,171.548,1529.56)">
                <path d="M0.114,-0.361C0.121,-0.383 0.13,-0.403 0.14,-0.421C0.15,-0.438 0.161,-0.452 0.174,-0.465C0.187,-0.476 0.202,-0.486 0.219,-0.492C0.236,-0.498 0.255,-0.501 0.276,-0.501C0.285,-0.501 0.295,-0.5 0.305,-0.499C0.315,-0.497 0.325,-0.494 0.333,-0.49L0.33,-0.474C0.328,-0.47 0.326,-0.468 0.323,-0.469C0.319,-0.468 0.313,-0.47 0.306,-0.472C0.298,-0.475 0.287,-0.476 0.273,-0.476C0.252,-0.476 0.233,-0.473 0.217,-0.466C0.201,-0.46 0.187,-0.45 0.174,-0.438C0.162,-0.425 0.151,-0.409 0.141,-0.39C0.131,-0.371 0.123,-0.349 0.115,-0.324L0.115,0L0.088,0L0.088,-0.493L0.1,-0.493C0.107,-0.493 0.11,-0.489 0.111,-0.482L0.114,-0.361Z" style="fill:white;fill-rule:nonzero;"/>
            </g>
            <g transform="matrix(90,0,0,90,201.788,1529.56)">
                <path d="M0.369,-0.247C0.268,-0.244 0.193,-0.231 0.145,-0.21C0.097,-0.188 0.073,-0.157 0.073,-0.118C0.073,-0.1 0.076,-0.084 0.082,-0.071C0.088,-0.057 0.097,-0.046 0.107,-0.037C0.117,-0.028 0.129,-0.022 0.142,-0.018C0.155,-0.014 0.168,-0.012 0.182,-0.012C0.203,-0.012 0.222,-0.014 0.24,-0.019C0.258,-0.024 0.274,-0.03 0.289,-0.039C0.304,-0.047 0.318,-0.057 0.331,-0.068C0.344,-0.079 0.357,-0.091 0.369,-0.104L0.369,-0.247ZM0.074,-0.423C0.098,-0.448 0.124,-0.468 0.151,-0.481C0.178,-0.494 0.209,-0.501 0.244,-0.501C0.269,-0.501 0.292,-0.497 0.311,-0.489C0.33,-0.481 0.345,-0.469 0.358,-0.454C0.37,-0.438 0.38,-0.42 0.386,-0.398C0.392,-0.376 0.395,-0.351 0.395,-0.324L0.395,0L0.386,0C0.379,0 0.375,-0.004 0.374,-0.011L0.369,-0.084C0.355,-0.07 0.342,-0.057 0.328,-0.046C0.314,-0.034 0.3,-0.025 0.285,-0.017C0.269,-0.009 0.253,-0.003 0.235,0.002C0.217,0.006 0.198,0.008 0.177,0.008C0.161,0.008 0.145,0.006 0.13,0.001C0.115,-0.004 0.101,-0.011 0.089,-0.021C0.076,-0.031 0.066,-0.044 0.059,-0.06C0.051,-0.076 0.048,-0.095 0.048,-0.117C0.048,-0.139 0.054,-0.158 0.066,-0.176C0.079,-0.194 0.098,-0.209 0.125,-0.222C0.151,-0.235 0.184,-0.245 0.225,-0.252C0.265,-0.26 0.313,-0.264 0.369,-0.266L0.369,-0.324C0.369,-0.373 0.358,-0.412 0.337,-0.439C0.315,-0.466 0.284,-0.48 0.242,-0.48C0.217,-0.48 0.195,-0.476 0.177,-0.469C0.159,-0.462 0.144,-0.454 0.132,-0.445C0.12,-0.436 0.11,-0.428 0.103,-0.421C0.096,-0.414 0.091,-0.411 0.087,-0.411C0.084,-0.411 0.081,-0.412 0.078,-0.416L0.074,-0.423Z" style="fill:white;fill-rule:nonzero;"/>
            </g>
            <g transform="matrix(90,0,0,90,244.763,1529.56)">
                <path d="M0.432,-0.394C0.411,-0.425 0.389,-0.448 0.364,-0.461C0.339,-0.474 0.31,-0.481 0.278,-0.481C0.245,-0.481 0.217,-0.475 0.193,-0.463C0.169,-0.451 0.149,-0.435 0.133,-0.414C0.117,-0.393 0.105,-0.368 0.097,-0.339C0.089,-0.31 0.085,-0.279 0.085,-0.246C0.085,-0.167 0.1,-0.109 0.129,-0.072C0.159,-0.034 0.202,-0.015 0.259,-0.015C0.293,-0.015 0.325,-0.025 0.355,-0.044C0.384,-0.063 0.41,-0.089 0.432,-0.123L0.432,-0.394ZM0.459,-0.723L0.459,0L0.447,0C0.44,0 0.436,-0.003 0.436,-0.01L0.433,-0.098C0.411,-0.066 0.385,-0.04 0.354,-0.022C0.324,-0.003 0.29,0.006 0.253,0.006C0.19,0.006 0.142,-0.015 0.109,-0.056C0.075,-0.097 0.058,-0.161 0.058,-0.246C0.058,-0.282 0.063,-0.315 0.072,-0.346C0.081,-0.377 0.095,-0.404 0.113,-0.427C0.131,-0.45 0.153,-0.468 0.18,-0.481C0.207,-0.494 0.238,-0.501 0.274,-0.501C0.309,-0.501 0.339,-0.494 0.365,-0.481C0.391,-0.467 0.413,-0.447 0.432,-0.42L0.432,-0.723L0.459,-0.723Z" style="fill:white;fill-rule:nonzero;"/>
            </g>
            <g transform="matrix(90,0,0,90,293.948,1529.56)">
                <path d="M0.472,-0.493L0.184,0.166C0.182,0.169 0.18,0.172 0.178,0.175C0.176,0.177 0.172,0.179 0.168,0.179L0.151,0.179L0.236,-0.012L0.025,-0.493L0.045,-0.493C0.048,-0.493 0.051,-0.492 0.053,-0.49C0.055,-0.488 0.057,-0.486 0.058,-0.484L0.242,-0.062C0.245,-0.055 0.247,-0.047 0.249,-0.039C0.251,-0.046 0.254,-0.054 0.258,-0.062L0.441,-0.484C0.442,-0.487 0.444,-0.489 0.446,-0.491C0.448,-0.492 0.45,-0.493 0.453,-0.493L0.472,-0.493Z" style="fill:white;fill-rule:nonzero;"/>
            </g>
            <g transform="matrix(90,0,0,90,361.448,1529.56)">
                <path d="M0.088,0L0.088,-0.493L0.101,-0.493C0.107,-0.493 0.11,-0.49 0.111,-0.483L0.114,-0.4C0.133,-0.431 0.156,-0.455 0.182,-0.474C0.208,-0.492 0.237,-0.501 0.269,-0.501C0.306,-0.501 0.336,-0.49 0.358,-0.467C0.38,-0.444 0.394,-0.413 0.401,-0.372C0.406,-0.394 0.414,-0.413 0.424,-0.429C0.435,-0.445 0.447,-0.458 0.461,-0.469C0.475,-0.48 0.49,-0.488 0.507,-0.493C0.524,-0.498 0.541,-0.501 0.559,-0.501C0.582,-0.501 0.604,-0.497 0.623,-0.489C0.642,-0.481 0.658,-0.469 0.672,-0.453C0.685,-0.437 0.695,-0.418 0.702,-0.395C0.709,-0.372 0.713,-0.345 0.713,-0.316L0.713,0L0.687,0L0.687,-0.316C0.687,-0.369 0.675,-0.41 0.652,-0.438C0.629,-0.466 0.597,-0.48 0.555,-0.48C0.536,-0.48 0.518,-0.477 0.501,-0.47C0.484,-0.463 0.468,-0.453 0.455,-0.439C0.442,-0.425 0.432,-0.408 0.424,-0.387C0.416,-0.367 0.412,-0.343 0.412,-0.316L0.412,0L0.385,0L0.385,-0.316C0.385,-0.368 0.375,-0.408 0.354,-0.437C0.333,-0.466 0.303,-0.48 0.263,-0.48C0.233,-0.48 0.206,-0.471 0.181,-0.452C0.156,-0.433 0.134,-0.408 0.115,-0.375L0.115,0L0.088,0Z" style="fill:white;fill-rule:nonzero;"/>
            </g>
            <g transform="matrix(90,0,0,90,433.043,1529.56)">
                <path d="M0.443,-0.294C0.443,-0.324 0.438,-0.35 0.43,-0.373C0.421,-0.396 0.41,-0.416 0.395,-0.432C0.38,-0.448 0.362,-0.46 0.342,-0.469C0.322,-0.477 0.3,-0.481 0.276,-0.481C0.248,-0.481 0.223,-0.477 0.201,-0.468C0.179,-0.459 0.16,-0.446 0.144,-0.43C0.128,-0.414 0.115,-0.394 0.105,-0.371C0.095,-0.348 0.089,-0.322 0.086,-0.294L0.443,-0.294ZM0.454,-0.061C0.447,-0.052 0.438,-0.044 0.426,-0.036C0.413,-0.028 0.4,-0.021 0.384,-0.015C0.369,-0.009 0.352,-0.004 0.334,0C0.316,0.004 0.297,0.006 0.278,0.006C0.244,0.006 0.214,0 0.187,-0.012C0.16,-0.024 0.136,-0.041 0.117,-0.063C0.098,-0.085 0.083,-0.113 0.073,-0.145C0.063,-0.178 0.058,-0.215 0.058,-0.257C0.058,-0.293 0.062,-0.325 0.072,-0.355C0.082,-0.385 0.096,-0.411 0.115,-0.433C0.134,-0.454 0.157,-0.471 0.184,-0.483C0.211,-0.495 0.241,-0.501 0.276,-0.501C0.302,-0.501 0.327,-0.496 0.35,-0.487C0.373,-0.478 0.394,-0.464 0.411,-0.446C0.428,-0.428 0.442,-0.405 0.452,-0.379C0.462,-0.352 0.467,-0.321 0.467,-0.287C0.467,-0.28 0.464,-0.277 0.458,-0.277L0.084,-0.277C0.084,-0.273 0.084,-0.27 0.084,-0.267L0.084,-0.257C0.084,-0.217 0.088,-0.183 0.098,-0.153C0.107,-0.123 0.12,-0.097 0.137,-0.077C0.154,-0.057 0.175,-0.041 0.199,-0.031C0.223,-0.02 0.25,-0.015 0.28,-0.015C0.306,-0.015 0.329,-0.018 0.348,-0.024C0.367,-0.03 0.384,-0.036 0.397,-0.043C0.41,-0.05 0.42,-0.056 0.427,-0.062C0.434,-0.068 0.439,-0.071 0.441,-0.071C0.443,-0.071 0.445,-0.07 0.447,-0.068L0.454,-0.061Z" style="fill:white;fill-rule:nonzero;"/>
            </g>
            <g transform="matrix(90,0,0,90,479.663,1529.56)">
                <path d="M0.432,-0.394C0.411,-0.425 0.389,-0.448 0.364,-0.461C0.339,-0.474 0.31,-0.481 0.278,-0.481C0.245,-0.481 0.217,-0.475 0.193,-0.463C0.169,-0.451 0.149,-0.435 0.133,-0.414C0.117,-0.393 0.105,-0.368 0.097,-0.339C0.089,-0.31 0.085,-0.279 0.085,-0.246C0.085,-0.167 0.1,-0.109 0.129,-0.072C0.159,-0.034 0.202,-0.015 0.259,-0.015C0.293,-0.015 0.325,-0.025 0.355,-0.044C0.384,-0.063 0.41,-0.089 0.432,-0.123L0.432,-0.394ZM0.459,-0.723L0.459,0L0.447,0C0.44,0 0.436,-0.003 0.436,-0.01L0.433,-0.098C0.411,-0.066 0.385,-0.04 0.354,-0.022C0.324,-0.003 0.29,0.006 0.253,0.006C0.19,0.006 0.142,-0.015 0.109,-0.056C0.075,-0.097 0.058,-0.161 0.058,-0.246C0.058,-0.282 0.063,-0.315 0.072,-0.346C0.081,-0.377 0.095,-0.404 0.113,-0.427C0.131,-0.45 0.153,-0.468 0.18,-0.481C0.207,-0.494 0.238,-0.501 0.274,-0.501C0.309,-0.501 0.339,-0.494 0.365,-0.481C0.391,-0.467 0.413,-0.447 0.432,-0.42L0.432,-0.723L0.459,-0.723Z" style="fill:white;fill-rule:nonzero;"/>
            </g>
            <g transform="matrix(90,0,0,90,528.848,1529.56)">
                <path d="M0.472,-0.493L0.184,0.166C0.182,0.169 0.18,0.172 0.178,0.175C0.176,0.177 0.172,0.179 0.168,0.179L0.151,0.179L0.236,-0.012L0.025,-0.493L0.045,-0.493C0.048,-0.493 0.051,-0.492 0.053,-0.49C0.055,-0.488 0.057,-0.486 0.058,-0.484L0.242,-0.062C0.245,-0.055 0.247,-0.047 0.249,-0.039C0.251,-0.046 0.254,-0.054 0.258,-0.062L0.441,-0.484C0.442,-0.487 0.444,-0.489 0.446,-0.491C0.448,-0.492 0.45,-0.493 0.453,-0.493L0.472,-0.493Z" style="fill:white;fill-rule:nonzero;"/>
            </g>
            <g transform="matrix(90,0,0,90,572.453,1529.56)">
                <path d="M0.414,-0.439C0.413,-0.438 0.412,-0.437 0.411,-0.436C0.41,-0.435 0.408,-0.435 0.407,-0.435C0.404,-0.435 0.4,-0.437 0.394,-0.442C0.388,-0.447 0.381,-0.452 0.371,-0.458C0.361,-0.463 0.348,-0.468 0.333,-0.473C0.317,-0.478 0.299,-0.48 0.277,-0.48C0.246,-0.48 0.219,-0.475 0.195,-0.464C0.171,-0.453 0.151,-0.437 0.135,-0.417C0.118,-0.397 0.106,-0.372 0.097,-0.344C0.088,-0.315 0.084,-0.282 0.084,-0.247C0.084,-0.21 0.088,-0.177 0.097,-0.148C0.106,-0.119 0.119,-0.095 0.135,-0.075C0.151,-0.055 0.17,-0.04 0.193,-0.03C0.216,-0.02 0.242,-0.015 0.27,-0.015C0.295,-0.015 0.316,-0.017 0.333,-0.023C0.35,-0.029 0.365,-0.036 0.376,-0.043C0.387,-0.05 0.396,-0.056 0.402,-0.062C0.408,-0.068 0.412,-0.071 0.415,-0.071C0.418,-0.071 0.42,-0.07 0.422,-0.068L0.428,-0.061C0.422,-0.052 0.413,-0.044 0.403,-0.036C0.392,-0.028 0.38,-0.021 0.366,-0.015C0.352,-0.009 0.337,-0.004 0.32,0C0.303,0.004 0.286,0.006 0.267,0.006C0.235,0.006 0.206,0 0.181,-0.011C0.155,-0.022 0.133,-0.039 0.115,-0.061C0.097,-0.082 0.083,-0.109 0.073,-0.14C0.063,-0.171 0.058,-0.207 0.058,-0.247C0.058,-0.284 0.062,-0.319 0.072,-0.351C0.082,-0.382 0.096,-0.409 0.115,-0.431C0.134,-0.453 0.157,-0.47 0.184,-0.483C0.211,-0.495 0.241,-0.501 0.276,-0.501C0.307,-0.501 0.334,-0.496 0.358,-0.486C0.382,-0.476 0.403,-0.464 0.42,-0.448L0.414,-0.439Z" style="fill:white;fill-rule:nonzero;"/>
            </g>
            <g transform="matrix(90,0,0,90,614.618,1529.56)">
                <path d="M0.403,-0.493L0.403,-0.482C0.403,-0.48 0.403,-0.478 0.402,-0.477C0.401,-0.475 0.4,-0.473 0.398,-0.471L0.068,-0.021L0.389,-0.021L0.389,0L0.035,0L0.035,-0.01C0.035,-0.012 0.035,-0.013 0.036,-0.015C0.037,-0.017 0.038,-0.019 0.04,-0.021L0.371,-0.472L0.052,-0.472L0.052,-0.493L0.403,-0.493Z" style="fill:white;fill-rule:nonzero;"/>
            </g>
            <g transform="matrix(90,0,0,90,654.128,1529.56)">
                <path d="M0.114,-0.398C0.136,-0.429 0.164,-0.454 0.196,-0.473C0.228,-0.492 0.262,-0.501 0.3,-0.501C0.327,-0.501 0.351,-0.497 0.372,-0.488C0.392,-0.48 0.409,-0.468 0.423,-0.452C0.436,-0.436 0.446,-0.417 0.453,-0.394C0.46,-0.371 0.464,-0.345 0.464,-0.316L0.464,0L0.437,0L0.437,-0.316C0.437,-0.341 0.434,-0.364 0.429,-0.385C0.423,-0.405 0.414,-0.422 0.402,-0.436C0.39,-0.45 0.376,-0.461 0.358,-0.469C0.34,-0.476 0.32,-0.48 0.296,-0.48C0.26,-0.48 0.226,-0.471 0.196,-0.452C0.165,-0.433 0.138,-0.407 0.115,-0.374L0.115,0L0.088,0L0.088,-0.493L0.101,-0.493C0.107,-0.493 0.11,-0.49 0.111,-0.483L0.114,-0.398Z" style="fill:white;fill-rule:nonzero;"/>
            </g>
            <g transform="matrix(90,0,0,90,703.268,1529.56)">
                <path d="M0.443,-0.294C0.443,-0.324 0.438,-0.35 0.43,-0.373C0.421,-0.396 0.41,-0.416 0.395,-0.432C0.38,-0.448 0.362,-0.46 0.342,-0.469C0.322,-0.477 0.3,-0.481 0.276,-0.481C0.248,-0.481 0.223,-0.477 0.201,-0.468C0.179,-0.459 0.16,-0.446 0.144,-0.43C0.128,-0.414 0.115,-0.394 0.105,-0.371C0.095,-0.348 0.089,-0.322 0.086,-0.294L0.443,-0.294ZM0.454,-0.061C0.447,-0.052 0.438,-0.044 0.426,-0.036C0.413,-0.028 0.4,-0.021 0.384,-0.015C0.369,-0.009 0.352,-0.004 0.334,0C0.316,0.004 0.297,0.006 0.278,0.006C0.244,0.006 0.214,0 0.187,-0.012C0.16,-0.024 0.136,-0.041 0.117,-0.063C0.098,-0.085 0.083,-0.113 0.073,-0.145C0.063,-0.178 0.058,-0.215 0.058,-0.257C0.058,-0.293 0.062,-0.325 0.072,-0.355C0.082,-0.385 0.096,-0.411 0.115,-0.433C0.134,-0.454 0.157,-0.471 0.184,-0.483C0.211,-0.495 0.241,-0.501 0.276,-0.501C0.302,-0.501 0.327,-0.496 0.35,-0.487C0.373,-0.478 0.394,-0.464 0.411,-0.446C0.428,-0.428 0.442,-0.405 0.452,-0.379C0.462,-0.352 0.467,-0.321 0.467,-0.287C0.467,-0.28 0.464,-0.277 0.458,-0.277L0.084,-0.277C0.084,-0.273 0.084,-0.27 0.084,-0.267L0.084,-0.257C0.084,-0.217 0.088,-0.183 0.098,-0.153C0.107,-0.123 0.12,-0.097 0.137,-0.077C0.154,-0.057 0.175,-0.041 0.199,-0.031C0.223,-0.02 0.25,-0.015 0.28,-0.015C0.306,-0.015 0.329,-0.018 0.348,-0.024C0.367,-0.03 0.384,-0.036 0.397,-0.043C0.41,-0.05 0.42,-0.056 0.427,-0.062C0.434,-0.068 0.439,-0.071 0.441,-0.071C0.443,-0.071 0.445,-0.07 0.447,-0.068L0.454,-0.061Z" style="fill:white;fill-rule:nonzero;"/>
            </g>
            <g transform="matrix(90,0,0,90,-45.9142,1619.56)">
                <path d="M0.277,-0.501C0.312,-0.501 0.343,-0.495 0.37,-0.483C0.397,-0.471 0.42,-0.453 0.439,-0.431C0.457,-0.409 0.471,-0.382 0.481,-0.351C0.491,-0.32 0.496,-0.285 0.496,-0.247C0.496,-0.208 0.491,-0.173 0.481,-0.142C0.471,-0.111 0.457,-0.085 0.439,-0.063C0.42,-0.041 0.397,-0.024 0.37,-0.012C0.343,0 0.312,0.006 0.277,0.006C0.242,0.006 0.21,0 0.183,-0.012C0.156,-0.024 0.133,-0.041 0.115,-0.063C0.096,-0.085 0.082,-0.111 0.072,-0.142C0.062,-0.173 0.058,-0.208 0.058,-0.247C0.058,-0.285 0.062,-0.32 0.072,-0.351C0.082,-0.382 0.096,-0.409 0.115,-0.431C0.133,-0.453 0.156,-0.471 0.183,-0.483C0.21,-0.495 0.242,-0.501 0.277,-0.501ZM0.277,-0.015C0.309,-0.015 0.337,-0.021 0.361,-0.032C0.385,-0.043 0.405,-0.058 0.421,-0.079C0.437,-0.099 0.449,-0.123 0.457,-0.152C0.465,-0.18 0.469,-0.212 0.469,-0.247C0.469,-0.282 0.465,-0.313 0.457,-0.342C0.449,-0.371 0.437,-0.395 0.421,-0.416C0.405,-0.436 0.385,-0.452 0.361,-0.463C0.337,-0.474 0.309,-0.48 0.277,-0.48C0.245,-0.48 0.217,-0.474 0.193,-0.463C0.169,-0.452 0.148,-0.436 0.132,-0.416C0.116,-0.395 0.104,-0.371 0.096,-0.342C0.088,-0.313 0.084,-0.282 0.084,-0.247C0.084,-0.212 0.088,-0.18 0.096,-0.152C0.104,-0.123 0.116,-0.099 0.132,-0.079C0.148,-0.058 0.169,-0.043 0.193,-0.032C0.217,-0.021 0.245,-0.015 0.277,-0.015Z" style="fill:white;fill-rule:nonzero;"/>
            </g>
            <g transform="matrix(90,0,0,90,3.90083,1619.56)">
                <path d="M0.432,-0.394C0.411,-0.425 0.389,-0.448 0.364,-0.461C0.339,-0.474 0.31,-0.481 0.278,-0.481C0.245,-0.481 0.217,-0.475 0.193,-0.463C0.169,-0.451 0.149,-0.435 0.133,-0.414C0.117,-0.393 0.105,-0.368 0.097,-0.339C0.089,-0.31 0.085,-0.279 0.085,-0.246C0.085,-0.167 0.1,-0.109 0.129,-0.072C0.159,-0.034 0.202,-0.015 0.259,-0.015C0.293,-0.015 0.325,-0.025 0.355,-0.044C0.384,-0.063 0.41,-0.089 0.432,-0.123L0.432,-0.394ZM0.459,-0.723L0.459,0L0.447,0C0.44,0 0.436,-0.003 0.436,-0.01L0.433,-0.098C0.411,-0.066 0.385,-0.04 0.354,-0.022C0.324,-0.003 0.29,0.006 0.253,0.006C0.19,0.006 0.142,-0.015 0.109,-0.056C0.075,-0.097 0.058,-0.161 0.058,-0.246C0.058,-0.282 0.063,-0.315 0.072,-0.346C0.081,-0.377 0.095,-0.404 0.113,-0.427C0.131,-0.45 0.153,-0.468 0.18,-0.481C0.207,-0.494 0.238,-0.501 0.274,-0.501C0.309,-0.501 0.339,-0.494 0.365,-0.481C0.391,-0.467 0.413,-0.447 0.432,-0.42L0.432,-0.723L0.459,-0.723Z" style="fill:white;fill-rule:nonzero;"/>
            </g>
            <g transform="matrix(90,0,0,90,78.2408,1619.56)">
                <path d="M0.114,-0.398C0.136,-0.429 0.164,-0.454 0.196,-0.473C0.228,-0.492 0.262,-0.501 0.3,-0.501C0.327,-0.501 0.351,-0.497 0.372,-0.488C0.392,-0.48 0.409,-0.468 0.423,-0.452C0.436,-0.436 0.446,-0.417 0.453,-0.394C0.46,-0.371 0.464,-0.345 0.464,-0.316L0.464,0L0.437,0L0.437,-0.316C0.437,-0.341 0.434,-0.364 0.429,-0.385C0.423,-0.405 0.414,-0.422 0.402,-0.436C0.39,-0.45 0.376,-0.461 0.358,-0.469C0.34,-0.476 0.32,-0.48 0.296,-0.48C0.26,-0.48 0.226,-0.471 0.196,-0.452C0.165,-0.433 0.138,-0.407 0.115,-0.374L0.115,0L0.088,0L0.088,-0.493L0.101,-0.493C0.107,-0.493 0.11,-0.49 0.111,-0.483L0.114,-0.398Z" style="fill:white;fill-rule:nonzero;"/>
            </g>
            <g transform="matrix(90,0,0,90,127.381,1619.56)">
                <path d="M0.369,-0.247C0.268,-0.244 0.193,-0.231 0.145,-0.21C0.097,-0.188 0.073,-0.157 0.073,-0.118C0.073,-0.1 0.076,-0.084 0.082,-0.071C0.088,-0.057 0.097,-0.046 0.107,-0.037C0.117,-0.028 0.129,-0.022 0.142,-0.018C0.155,-0.014 0.168,-0.012 0.182,-0.012C0.203,-0.012 0.222,-0.014 0.24,-0.019C0.258,-0.024 0.274,-0.03 0.289,-0.039C0.304,-0.047 0.318,-0.057 0.331,-0.068C0.344,-0.079 0.357,-0.091 0.369,-0.104L0.369,-0.247ZM0.074,-0.423C0.098,-0.448 0.124,-0.468 0.151,-0.481C0.178,-0.494 0.209,-0.501 0.244,-0.501C0.269,-0.501 0.292,-0.497 0.311,-0.489C0.33,-0.481 0.345,-0.469 0.358,-0.454C0.37,-0.438 0.38,-0.42 0.386,-0.398C0.392,-0.376 0.395,-0.351 0.395,-0.324L0.395,0L0.386,0C0.379,0 0.375,-0.004 0.374,-0.011L0.369,-0.084C0.355,-0.07 0.342,-0.057 0.328,-0.046C0.314,-0.034 0.3,-0.025 0.285,-0.017C0.269,-0.009 0.253,-0.003 0.235,0.002C0.217,0.006 0.198,0.008 0.177,0.008C0.161,0.008 0.145,0.006 0.13,0.001C0.115,-0.004 0.101,-0.011 0.089,-0.021C0.076,-0.031 0.066,-0.044 0.059,-0.06C0.051,-0.076 0.048,-0.095 0.048,-0.117C0.048,-0.139 0.054,-0.158 0.066,-0.176C0.079,-0.194 0.098,-0.209 0.125,-0.222C0.151,-0.235 0.184,-0.245 0.225,-0.252C0.265,-0.26 0.313,-0.264 0.369,-0.266L0.369,-0.324C0.369,-0.373 0.358,-0.412 0.337,-0.439C0.315,-0.466 0.284,-0.48 0.242,-0.48C0.217,-0.48 0.195,-0.476 0.177,-0.469C0.159,-0.462 0.144,-0.454 0.132,-0.445C0.12,-0.436 0.11,-0.428 0.103,-0.421C0.096,-0.414 0.091,-0.411 0.087,-0.411C0.084,-0.411 0.081,-0.412 0.078,-0.416L0.074,-0.423Z" style="fill:white;fill-rule:nonzero;"/>
            </g>
            <g transform="matrix(90,0,0,90,170.356,1619.56)">
                <path d="M0.35,-0.443C0.348,-0.44 0.346,-0.438 0.343,-0.438C0.339,-0.438 0.335,-0.44 0.33,-0.445C0.324,-0.449 0.317,-0.454 0.307,-0.459C0.297,-0.464 0.285,-0.469 0.271,-0.474C0.256,-0.478 0.238,-0.481 0.217,-0.481C0.197,-0.481 0.179,-0.478 0.163,-0.472C0.147,-0.466 0.133,-0.458 0.122,-0.449C0.11,-0.439 0.101,-0.428 0.095,-0.415C0.088,-0.402 0.085,-0.388 0.085,-0.374C0.085,-0.357 0.089,-0.343 0.097,-0.332C0.105,-0.321 0.116,-0.311 0.13,-0.303C0.143,-0.295 0.158,-0.289 0.175,-0.283C0.192,-0.278 0.209,-0.272 0.227,-0.267C0.245,-0.261 0.262,-0.255 0.279,-0.249C0.296,-0.243 0.311,-0.235 0.325,-0.226C0.338,-0.216 0.349,-0.205 0.357,-0.191C0.365,-0.177 0.369,-0.161 0.369,-0.141C0.369,-0.12 0.365,-0.1 0.358,-0.083C0.351,-0.065 0.34,-0.049 0.326,-0.035C0.312,-0.022 0.294,-0.011 0.274,-0.004C0.253,0.004 0.23,0.008 0.204,0.008C0.186,0.008 0.17,0.007 0.156,0.004C0.141,0.001 0.128,-0.003 0.116,-0.008C0.103,-0.013 0.092,-0.02 0.081,-0.027C0.07,-0.034 0.06,-0.043 0.05,-0.052L0.057,-0.06C0.058,-0.062 0.059,-0.063 0.06,-0.064C0.061,-0.065 0.063,-0.065 0.066,-0.065C0.069,-0.065 0.074,-0.062 0.08,-0.057C0.086,-0.051 0.095,-0.045 0.105,-0.039C0.116,-0.032 0.129,-0.026 0.145,-0.02C0.161,-0.015 0.181,-0.012 0.204,-0.012C0.227,-0.012 0.247,-0.015 0.265,-0.022C0.282,-0.028 0.297,-0.037 0.309,-0.049C0.321,-0.06 0.33,-0.073 0.336,-0.088C0.342,-0.103 0.345,-0.12 0.345,-0.137C0.345,-0.155 0.34,-0.169 0.332,-0.182C0.324,-0.194 0.313,-0.204 0.3,-0.212C0.287,-0.22 0.272,-0.227 0.255,-0.233C0.238,-0.238 0.22,-0.244 0.203,-0.249C0.185,-0.254 0.167,-0.26 0.151,-0.266C0.133,-0.272 0.118,-0.28 0.105,-0.289C0.092,-0.298 0.081,-0.31 0.073,-0.323C0.065,-0.336 0.061,-0.353 0.061,-0.373C0.061,-0.39 0.064,-0.406 0.072,-0.421C0.079,-0.437 0.09,-0.45 0.104,-0.462C0.117,-0.474 0.134,-0.484 0.153,-0.491C0.172,-0.498 0.193,-0.501 0.217,-0.501C0.246,-0.501 0.271,-0.497 0.293,-0.489C0.315,-0.481 0.336,-0.468 0.356,-0.451L0.35,-0.443Z" style="fill:white;fill-rule:nonzero;"/>
            </g>
            <g transform="matrix(90,0,0,90,208.246,1619.56)">
                <path d="M0.403,-0.493L0.403,-0.482C0.403,-0.48 0.403,-0.478 0.402,-0.477C0.401,-0.475 0.4,-0.473 0.398,-0.471L0.068,-0.021L0.389,-0.021L0.389,0L0.035,0L0.035,-0.01C0.035,-0.012 0.035,-0.013 0.036,-0.015C0.037,-0.017 0.038,-0.019 0.04,-0.021L0.371,-0.472L0.052,-0.472L0.052,-0.493L0.403,-0.493Z" style="fill:white;fill-rule:nonzero;"/>
            </g>
            <g transform="matrix(90,0,0,90,247.756,1619.56)">
                <path d="M0.472,-0.493L0.184,0.166C0.182,0.169 0.18,0.172 0.178,0.175C0.176,0.177 0.172,0.179 0.168,0.179L0.151,0.179L0.236,-0.012L0.025,-0.493L0.045,-0.493C0.048,-0.493 0.051,-0.492 0.053,-0.49C0.055,-0.488 0.057,-0.486 0.058,-0.484L0.242,-0.062C0.245,-0.055 0.247,-0.047 0.249,-0.039C0.251,-0.046 0.254,-0.054 0.258,-0.062L0.441,-0.484C0.442,-0.487 0.444,-0.489 0.446,-0.491C0.448,-0.492 0.45,-0.493 0.453,-0.493L0.472,-0.493Z" style="fill:white;fill-rule:nonzero;"/>
            </g>
            <g transform="matrix(90,0,0,90,291.361,1619.56)">
                <path d="M0.414,-0.439C0.413,-0.438 0.412,-0.437 0.411,-0.436C0.41,-0.435 0.408,-0.435 0.407,-0.435C0.404,-0.435 0.4,-0.437 0.394,-0.442C0.388,-0.447 0.381,-0.452 0.371,-0.458C0.361,-0.463 0.348,-0.468 0.333,-0.473C0.317,-0.478 0.299,-0.48 0.277,-0.48C0.246,-0.48 0.219,-0.475 0.195,-0.464C0.171,-0.453 0.151,-0.437 0.135,-0.417C0.118,-0.397 0.106,-0.372 0.097,-0.344C0.088,-0.315 0.084,-0.282 0.084,-0.247C0.084,-0.21 0.088,-0.177 0.097,-0.148C0.106,-0.119 0.119,-0.095 0.135,-0.075C0.151,-0.055 0.17,-0.04 0.193,-0.03C0.216,-0.02 0.242,-0.015 0.27,-0.015C0.295,-0.015 0.316,-0.017 0.333,-0.023C0.35,-0.029 0.365,-0.036 0.376,-0.043C0.387,-0.05 0.396,-0.056 0.402,-0.062C0.408,-0.068 0.412,-0.071 0.415,-0.071C0.418,-0.071 0.42,-0.07 0.422,-0.068L0.428,-0.061C0.422,-0.052 0.413,-0.044 0.403,-0.036C0.392,-0.028 0.38,-0.021 0.366,-0.015C0.352,-0.009 0.337,-0.004 0.32,0C0.303,0.004 0.286,0.006 0.267,0.006C0.235,0.006 0.206,0 0.181,-0.011C0.155,-0.022 0.133,-0.039 0.115,-0.061C0.097,-0.082 0.083,-0.109 0.073,-0.14C0.063,-0.171 0.058,-0.207 0.058,-0.247C0.058,-0.284 0.062,-0.319 0.072,-0.351C0.082,-0.382 0.096,-0.409 0.115,-0.431C0.134,-0.453 0.157,-0.47 0.184,-0.483C0.211,-0.495 0.241,-0.501 0.276,-0.501C0.307,-0.501 0.334,-0.496 0.358,-0.486C0.382,-0.476 0.403,-0.464 0.42,-0.448L0.414,-0.439Z" style="fill:white;fill-rule:nonzero;"/>
            </g>
            <g transform="matrix(90,0,0,90,333.526,1619.56)">
                <path d="M0.115,-0.399C0.137,-0.43 0.165,-0.455 0.197,-0.473C0.228,-0.492 0.263,-0.501 0.3,-0.501C0.327,-0.501 0.351,-0.497 0.372,-0.488C0.392,-0.48 0.409,-0.468 0.423,-0.452C0.436,-0.436 0.446,-0.417 0.453,-0.394C0.46,-0.371 0.464,-0.345 0.464,-0.316L0.464,0L0.437,0L0.437,-0.316C0.437,-0.341 0.434,-0.364 0.429,-0.385C0.423,-0.405 0.414,-0.422 0.402,-0.436C0.39,-0.45 0.376,-0.461 0.358,-0.469C0.34,-0.476 0.32,-0.48 0.296,-0.48C0.26,-0.48 0.226,-0.471 0.196,-0.452C0.165,-0.433 0.138,-0.407 0.115,-0.374L0.115,0L0.088,0L0.088,-0.723L0.115,-0.723L0.115,-0.399Z" style="fill:white;fill-rule:nonzero;"/>
            </g>
            <g transform="matrix(90,0,0,90,407.821,1619.56)">
                <path d="M0.35,-0.443C0.348,-0.44 0.346,-0.438 0.343,-0.438C0.339,-0.438 0.335,-0.44 0.33,-0.445C0.324,-0.449 0.317,-0.454 0.307,-0.459C0.297,-0.464 0.285,-0.469 0.271,-0.474C0.256,-0.478 0.238,-0.481 0.217,-0.481C0.197,-0.481 0.179,-0.478 0.163,-0.472C0.147,-0.466 0.133,-0.458 0.122,-0.449C0.11,-0.439 0.101,-0.428 0.095,-0.415C0.088,-0.402 0.085,-0.388 0.085,-0.374C0.085,-0.357 0.089,-0.343 0.097,-0.332C0.105,-0.321 0.116,-0.311 0.13,-0.303C0.143,-0.295 0.158,-0.289 0.175,-0.283C0.192,-0.278 0.209,-0.272 0.227,-0.267C0.245,-0.261 0.262,-0.255 0.279,-0.249C0.296,-0.243 0.311,-0.235 0.325,-0.226C0.338,-0.216 0.349,-0.205 0.357,-0.191C0.365,-0.177 0.369,-0.161 0.369,-0.141C0.369,-0.12 0.365,-0.1 0.358,-0.083C0.351,-0.065 0.34,-0.049 0.326,-0.035C0.312,-0.022 0.294,-0.011 0.274,-0.004C0.253,0.004 0.23,0.008 0.204,0.008C0.186,0.008 0.17,0.007 0.156,0.004C0.141,0.001 0.128,-0.003 0.116,-0.008C0.103,-0.013 0.092,-0.02 0.081,-0.027C0.07,-0.034 0.06,-0.043 0.05,-0.052L0.057,-0.06C0.058,-0.062 0.059,-0.063 0.06,-0.064C0.061,-0.065 0.063,-0.065 0.066,-0.065C0.069,-0.065 0.074,-0.062 0.08,-0.057C0.086,-0.051 0.095,-0.045 0.105,-0.039C0.116,-0.032 0.129,-0.026 0.145,-0.02C0.161,-0.015 0.181,-0.012 0.204,-0.012C0.227,-0.012 0.247,-0.015 0.265,-0.022C0.282,-0.028 0.297,-0.037 0.309,-0.049C0.321,-0.06 0.33,-0.073 0.336,-0.088C0.342,-0.103 0.345,-0.12 0.345,-0.137C0.345,-0.155 0.34,-0.169 0.332,-0.182C0.324,-0.194 0.313,-0.204 0.3,-0.212C0.287,-0.22 0.272,-0.227 0.255,-0.233C0.238,-0.238 0.22,-0.244 0.203,-0.249C0.185,-0.254 0.167,-0.26 0.151,-0.266C0.133,-0.272 0.118,-0.28 0.105,-0.289C0.092,-0.298 0.081,-0.31 0.073,-0.323C0.065,-0.336 0.061,-0.353 0.061,-0.373C0.061,-0.39 0.064,-0.406 0.072,-0.421C0.079,-0.437 0.09,-0.45 0.104,-0.462C0.117,-0.474 0.134,-0.484 0.153,-0.491C0.172,-0.498 0.193,-0.501 0.217,-0.501C0.246,-0.501 0.271,-0.497 0.293,-0.489C0.315,-0.481 0.336,-0.468 0.356,-0.451L0.35,-0.443Z" style="fill:white;fill-rule:nonzero;"/>
            </g>
            <g transform="matrix(90,0,0,90,445.711,1619.56)">
                <path d="M0.115,-0.103C0.135,-0.07 0.158,-0.047 0.183,-0.034C0.208,-0.021 0.236,-0.015 0.269,-0.015C0.301,-0.015 0.329,-0.02 0.354,-0.032C0.378,-0.044 0.398,-0.061 0.414,-0.082C0.43,-0.102 0.442,-0.127 0.45,-0.156C0.458,-0.185 0.462,-0.216 0.462,-0.25C0.462,-0.328 0.447,-0.386 0.417,-0.424C0.387,-0.461 0.344,-0.48 0.288,-0.48C0.253,-0.48 0.221,-0.47 0.192,-0.452C0.162,-0.432 0.136,-0.406 0.115,-0.373L0.115,-0.103ZM0.114,-0.397C0.135,-0.429 0.162,-0.455 0.192,-0.473C0.223,-0.492 0.257,-0.501 0.294,-0.501C0.356,-0.501 0.404,-0.48 0.438,-0.439C0.472,-0.398 0.489,-0.335 0.489,-0.25C0.489,-0.214 0.484,-0.18 0.475,-0.149C0.466,-0.118 0.452,-0.091 0.434,-0.068C0.416,-0.045 0.393,-0.027 0.366,-0.014C0.339,-0.001 0.308,0.006 0.273,0.006C0.204,0.006 0.151,-0.021 0.115,-0.076L0.115,0.179L0.088,0.179L0.088,-0.493L0.101,-0.493C0.107,-0.493 0.11,-0.49 0.111,-0.483L0.114,-0.397Z" style="fill:white;fill-rule:nonzero;"/>
            </g>
            <g transform="matrix(90,0,0,90,494.896,1619.56)">
                <path d="M0.443,-0.294C0.443,-0.324 0.438,-0.35 0.43,-0.373C0.421,-0.396 0.41,-0.416 0.395,-0.432C0.38,-0.448 0.362,-0.46 0.342,-0.469C0.322,-0.477 0.3,-0.481 0.276,-0.481C0.248,-0.481 0.223,-0.477 0.201,-0.468C0.179,-0.459 0.16,-0.446 0.144,-0.43C0.128,-0.414 0.115,-0.394 0.105,-0.371C0.095,-0.348 0.089,-0.322 0.086,-0.294L0.443,-0.294ZM0.454,-0.061C0.447,-0.052 0.438,-0.044 0.426,-0.036C0.413,-0.028 0.4,-0.021 0.384,-0.015C0.369,-0.009 0.352,-0.004 0.334,0C0.316,0.004 0.297,0.006 0.278,0.006C0.244,0.006 0.214,0 0.187,-0.012C0.16,-0.024 0.136,-0.041 0.117,-0.063C0.098,-0.085 0.083,-0.113 0.073,-0.145C0.063,-0.178 0.058,-0.215 0.058,-0.257C0.058,-0.293 0.062,-0.325 0.072,-0.355C0.082,-0.385 0.096,-0.411 0.115,-0.433C0.134,-0.454 0.157,-0.471 0.184,-0.483C0.211,-0.495 0.241,-0.501 0.276,-0.501C0.302,-0.501 0.327,-0.496 0.35,-0.487C0.373,-0.478 0.394,-0.464 0.411,-0.446C0.428,-0.428 0.442,-0.405 0.452,-0.379C0.462,-0.352 0.467,-0.321 0.467,-0.287C0.467,-0.28 0.464,-0.277 0.458,-0.277L0.084,-0.277C0.084,-0.273 0.084,-0.27 0.084,-0.267L0.084,-0.257C0.084,-0.217 0.088,-0.183 0.098,-0.153C0.107,-0.123 0.12,-0.097 0.137,-0.077C0.154,-0.057 0.175,-0.041 0.199,-0.031C0.223,-0.02 0.25,-0.015 0.28,-0.015C0.306,-0.015 0.329,-0.018 0.348,-0.024C0.367,-0.03 0.384,-0.036 0.397,-0.043C0.41,-0.05 0.42,-0.056 0.427,-0.062C0.434,-0.068 0.439,-0.071 0.441,-0.071C0.443,-0.071 0.445,-0.07 0.447,-0.068L0.454,-0.061Z" style="fill:white;fill-rule:nonzero;"/>
            </g>
            <g transform="matrix(90,0,0,90,541.516,1619.56)">
                <path d="M0.414,-0.439C0.413,-0.438 0.412,-0.437 0.411,-0.436C0.41,-0.435 0.408,-0.435 0.407,-0.435C0.404,-0.435 0.4,-0.437 0.394,-0.442C0.388,-0.447 0.381,-0.452 0.371,-0.458C0.361,-0.463 0.348,-0.468 0.333,-0.473C0.317,-0.478 0.299,-0.48 0.277,-0.48C0.246,-0.48 0.219,-0.475 0.195,-0.464C0.171,-0.453 0.151,-0.437 0.135,-0.417C0.118,-0.397 0.106,-0.372 0.097,-0.344C0.088,-0.315 0.084,-0.282 0.084,-0.247C0.084,-0.21 0.088,-0.177 0.097,-0.148C0.106,-0.119 0.119,-0.095 0.135,-0.075C0.151,-0.055 0.17,-0.04 0.193,-0.03C0.216,-0.02 0.242,-0.015 0.27,-0.015C0.295,-0.015 0.316,-0.017 0.333,-0.023C0.35,-0.029 0.365,-0.036 0.376,-0.043C0.387,-0.05 0.396,-0.056 0.402,-0.062C0.408,-0.068 0.412,-0.071 0.415,-0.071C0.418,-0.071 0.42,-0.07 0.422,-0.068L0.428,-0.061C0.422,-0.052 0.413,-0.044 0.403,-0.036C0.392,-0.028 0.38,-0.021 0.366,-0.015C0.352,-0.009 0.337,-0.004 0.32,0C0.303,0.004 0.286,0.006 0.267,0.006C0.235,0.006 0.206,0 0.181,-0.011C0.155,-0.022 0.133,-0.039 0.115,-0.061C0.097,-0.082 0.083,-0.109 0.073,-0.14C0.063,-0.171 0.058,-0.207 0.058,-0.247C0.058,-0.284 0.062,-0.319 0.072,-0.351C0.082,-0.382 0.096,-0.409 0.115,-0.431C0.134,-0.453 0.157,-0.47 0.184,-0.483C0.211,-0.495 0.241,-0.501 0.276,-0.501C0.307,-0.501 0.334,-0.496 0.358,-0.486C0.382,-0.476 0.403,-0.464 0.42,-0.448L0.414,-0.439Z" style="fill:white;fill-rule:nonzero;"/>
            </g>
            <g transform="matrix(90,0,0,90,583.681,1619.56)">
                <path d="M0.12,-0.493L0.12,0.077C0.12,0.093 0.118,0.107 0.113,0.121C0.108,0.134 0.101,0.145 0.092,0.155C0.083,0.165 0.072,0.172 0.059,0.178C0.046,0.183 0.031,0.186 0.014,0.186C0.004,0.186 -0.004,0.185 -0.011,0.183C-0.018,0.181 -0.024,0.179 -0.031,0.176L-0.029,0.163C-0.028,0.16 -0.026,0.159 -0.025,0.159C-0.023,0.159 -0.021,0.159 -0.018,0.16C-0.015,0.161 -0.011,0.162 -0.006,0.164C-0.002,0.165 0.004,0.166 0.011,0.166C0.038,0.166 0.059,0.158 0.073,0.142C0.087,0.126 0.094,0.104 0.094,0.077L0.094,-0.493L0.12,-0.493ZM0.141,-0.671C0.141,-0.666 0.14,-0.662 0.138,-0.658C0.136,-0.654 0.133,-0.65 0.13,-0.647C0.127,-0.644 0.123,-0.642 0.119,-0.64C0.115,-0.638 0.111,-0.637 0.107,-0.637C0.097,-0.637 0.089,-0.64 0.082,-0.647C0.075,-0.654 0.072,-0.662 0.072,-0.671C0.072,-0.68 0.075,-0.688 0.082,-0.695C0.089,-0.702 0.097,-0.706 0.107,-0.706C0.111,-0.706 0.115,-0.705 0.119,-0.703C0.123,-0.701 0.127,-0.698 0.13,-0.695C0.133,-0.692 0.136,-0.688 0.138,-0.684C0.14,-0.68 0.141,-0.676 0.141,-0.671Z" style="fill:white;fill-rule:nonzero;"/>
            </g>
            <g transform="matrix(90,0,0,90,602.941,1619.56)">
                <path d="M0.369,-0.247C0.268,-0.244 0.193,-0.231 0.145,-0.21C0.097,-0.188 0.073,-0.157 0.073,-0.118C0.073,-0.1 0.076,-0.084 0.082,-0.071C0.088,-0.057 0.097,-0.046 0.107,-0.037C0.117,-0.028 0.129,-0.022 0.142,-0.018C0.155,-0.014 0.168,-0.012 0.182,-0.012C0.203,-0.012 0.222,-0.014 0.24,-0.019C0.258,-0.024 0.274,-0.03 0.289,-0.039C0.304,-0.047 0.318,-0.057 0.331,-0.068C0.344,-0.079 0.357,-0.091 0.369,-0.104L0.369,-0.247ZM0.074,-0.423C0.098,-0.448 0.124,-0.468 0.151,-0.481C0.178,-0.494 0.209,-0.501 0.244,-0.501C0.269,-0.501 0.292,-0.497 0.311,-0.489C0.33,-0.481 0.345,-0.469 0.358,-0.454C0.37,-0.438 0.38,-0.42 0.386,-0.398C0.392,-0.376 0.395,-0.351 0.395,-0.324L0.395,0L0.386,0C0.379,0 0.375,-0.004 0.374,-0.011L0.369,-0.084C0.355,-0.07 0.342,-0.057 0.328,-0.046C0.314,-0.034 0.3,-0.025 0.285,-0.017C0.269,-0.009 0.253,-0.003 0.235,0.002C0.217,0.006 0.198,0.008 0.177,0.008C0.161,0.008 0.145,0.006 0.13,0.001C0.115,-0.004 0.101,-0.011 0.089,-0.021C0.076,-0.031 0.066,-0.044 0.059,-0.06C0.051,-0.076 0.048,-0.095 0.048,-0.117C0.048,-0.139 0.054,-0.158 0.066,-0.176C0.079,-0.194 0.098,-0.209 0.125,-0.222C0.151,-0.235 0.184,-0.245 0.225,-0.252C0.265,-0.26 0.313,-0.264 0.369,-0.266L0.369,-0.324C0.369,-0.373 0.358,-0.412 0.337,-0.439C0.315,-0.466 0.284,-0.48 0.242,-0.48C0.217,-0.48 0.195,-0.476 0.177,-0.469C0.159,-0.462 0.144,-0.454 0.132,-0.445C0.12,-0.436 0.11,-0.428 0.103,-0.421C0.096,-0.414 0.091,-0.411 0.087,-0.411C0.084,-0.411 0.081,-0.412 0.078,-0.416L0.074,-0.423Z" style="fill:white;fill-rule:nonzero;"/>
            </g>
            <g transform="matrix(90,0,0,90,645.916,1619.56)">
                <rect x="0.094" y="-0.723" width="0.026" height="0.723" style="fill:white;fill-rule:nonzero;"/>
            </g>
            <g transform="matrix(90,0,0,90,665.086,1619.56)">
                <path d="M0.12,-0.493L0.12,0L0.094,0L0.094,-0.493L0.12,-0.493ZM0.142,-0.671C0.142,-0.666 0.141,-0.662 0.139,-0.658C0.137,-0.654 0.134,-0.65 0.131,-0.647C0.128,-0.644 0.124,-0.642 0.12,-0.64C0.116,-0.638 0.111,-0.637 0.107,-0.637C0.098,-0.637 0.09,-0.64 0.083,-0.647C0.076,-0.654 0.073,-0.662 0.073,-0.671C0.073,-0.68 0.076,-0.688 0.083,-0.695C0.09,-0.702 0.098,-0.706 0.107,-0.706C0.111,-0.706 0.116,-0.705 0.12,-0.703C0.124,-0.701 0.128,-0.698 0.131,-0.695C0.134,-0.692 0.137,-0.688 0.139,-0.684C0.141,-0.68 0.142,-0.676 0.142,-0.671Z" style="fill:white;fill-rule:nonzero;"/>
            </g>
            <g transform="matrix(90,0,0,90,684.346,1619.56)">
                <path d="M0.35,-0.443C0.348,-0.44 0.346,-0.438 0.343,-0.438C0.339,-0.438 0.335,-0.44 0.33,-0.445C0.324,-0.449 0.317,-0.454 0.307,-0.459C0.297,-0.464 0.285,-0.469 0.271,-0.474C0.256,-0.478 0.238,-0.481 0.217,-0.481C0.197,-0.481 0.179,-0.478 0.163,-0.472C0.147,-0.466 0.133,-0.458 0.122,-0.449C0.11,-0.439 0.101,-0.428 0.095,-0.415C0.088,-0.402 0.085,-0.388 0.085,-0.374C0.085,-0.357 0.089,-0.343 0.097,-0.332C0.105,-0.321 0.116,-0.311 0.13,-0.303C0.143,-0.295 0.158,-0.289 0.175,-0.283C0.192,-0.278 0.209,-0.272 0.227,-0.267C0.245,-0.261 0.262,-0.255 0.279,-0.249C0.296,-0.243 0.311,-0.235 0.325,-0.226C0.338,-0.216 0.349,-0.205 0.357,-0.191C0.365,-0.177 0.369,-0.161 0.369,-0.141C0.369,-0.12 0.365,-0.1 0.358,-0.083C0.351,-0.065 0.34,-0.049 0.326,-0.035C0.312,-0.022 0.294,-0.011 0.274,-0.004C0.253,0.004 0.23,0.008 0.204,0.008C0.186,0.008 0.17,0.007 0.156,0.004C0.141,0.001 0.128,-0.003 0.116,-0.008C0.103,-0.013 0.092,-0.02 0.081,-0.027C0.07,-0.034 0.06,-0.043 0.05,-0.052L0.057,-0.06C0.058,-0.062 0.059,-0.063 0.06,-0.064C0.061,-0.065 0.063,-0.065 0.066,-0.065C0.069,-0.065 0.074,-0.062 0.08,-0.057C0.086,-0.051 0.095,-0.045 0.105,-0.039C0.116,-0.032 0.129,-0.026 0.145,-0.02C0.161,-0.015 0.181,-0.012 0.204,-0.012C0.227,-0.012 0.247,-0.015 0.265,-0.022C0.282,-0.028 0.297,-0.037 0.309,-0.049C0.321,-0.06 0.33,-0.073 0.336,-0.088C0.342,-0.103 0.345,-0.12 0.345,-0.137C0.345,-0.155 0.34,-0.169 0.332,-0.182C0.324,-0.194 0.313,-0.204 0.3,-0.212C0.287,-0.22 0.272,-0.227 0.255,-0.233C0.238,-0.238 0.22,-0.244 0.203,-0.249C0.185,-0.254 0.167,-0.26 0.151,-0.266C0.133,-0.272 0.118,-0.28 0.105,-0.289C0.092,-0.298 0.081,-0.31 0.073,-0.323C0.065,-0.336 0.061,-0.353 0.061,-0.373C0.061,-0.39 0.064,-0.406 0.072,-0.421C0.079,-0.437 0.09,-0.45 0.104,-0.462C0.117,-0.474 0.134,-0.484 0.153,-0.491C0.172,-0.498 0.193,-0.501 0.217,-0.501C0.246,-0.501 0.271,-0.497 0.293,-0.489C0.315,-0.481 0.336,-0.468 0.356,-0.451L0.35,-0.443Z" style="fill:white;fill-rule:nonzero;"/>
            </g>
            <g transform="matrix(90,0,0,90,722.236,1619.56)">
                <path d="M0.214,0.008C0.183,0.008 0.159,0 0.142,-0.017C0.125,-0.034 0.116,-0.061 0.116,-0.099L0.116,-0.454L0.039,-0.454C0.033,-0.454 0.03,-0.456 0.03,-0.462L0.03,-0.471L0.116,-0.474L0.124,-0.664C0.124,-0.666 0.125,-0.668 0.126,-0.67C0.127,-0.672 0.129,-0.673 0.132,-0.673L0.143,-0.673L0.143,-0.474L0.306,-0.474L0.306,-0.454L0.143,-0.454L0.143,-0.1C0.143,-0.084 0.145,-0.071 0.149,-0.06C0.153,-0.049 0.158,-0.041 0.165,-0.034C0.171,-0.027 0.179,-0.021 0.188,-0.018C0.197,-0.015 0.207,-0.014 0.218,-0.014C0.231,-0.014 0.242,-0.016 0.252,-0.02C0.262,-0.024 0.271,-0.028 0.278,-0.033C0.285,-0.037 0.29,-0.042 0.295,-0.046C0.299,-0.05 0.302,-0.052 0.304,-0.052C0.306,-0.052 0.308,-0.051 0.31,-0.049L0.316,-0.039C0.31,-0.032 0.304,-0.026 0.296,-0.02C0.289,-0.014 0.281,-0.009 0.272,-0.005C0.263,-0.001 0.253,0.002 0.244,0.005C0.234,0.007 0.224,0.008 0.214,0.008Z" style="fill:white;fill-rule:nonzero;"/>
            </g>
            <g transform="matrix(90,0,0,90,752.251,1619.56)">
                <path d="M0.277,-0.501C0.312,-0.501 0.343,-0.495 0.37,-0.483C0.397,-0.471 0.42,-0.453 0.439,-0.431C0.457,-0.409 0.471,-0.382 0.481,-0.351C0.491,-0.32 0.496,-0.285 0.496,-0.247C0.496,-0.208 0.491,-0.173 0.481,-0.142C0.471,-0.111 0.457,-0.085 0.439,-0.063C0.42,-0.041 0.397,-0.024 0.37,-0.012C0.343,0 0.312,0.006 0.277,0.006C0.242,0.006 0.21,0 0.183,-0.012C0.156,-0.024 0.133,-0.041 0.115,-0.063C0.096,-0.085 0.082,-0.111 0.072,-0.142C0.062,-0.173 0.058,-0.208 0.058,-0.247C0.058,-0.285 0.062,-0.32 0.072,-0.351C0.082,-0.382 0.096,-0.409 0.115,-0.431C0.133,-0.453 0.156,-0.471 0.183,-0.483C0.21,-0.495 0.242,-0.501 0.277,-0.501ZM0.277,-0.015C0.309,-0.015 0.337,-0.021 0.361,-0.032C0.385,-0.043 0.405,-0.058 0.421,-0.079C0.437,-0.099 0.449,-0.123 0.457,-0.152C0.465,-0.18 0.469,-0.212 0.469,-0.247C0.469,-0.282 0.465,-0.313 0.457,-0.342C0.449,-0.371 0.437,-0.395 0.421,-0.416C0.405,-0.436 0.385,-0.452 0.361,-0.463C0.337,-0.474 0.309,-0.48 0.277,-0.48C0.245,-0.48 0.217,-0.474 0.193,-0.463C0.169,-0.452 0.148,-0.436 0.132,-0.416C0.116,-0.395 0.104,-0.371 0.096,-0.342C0.088,-0.313 0.084,-0.282 0.084,-0.247C0.084,-0.212 0.088,-0.18 0.096,-0.152C0.104,-0.123 0.116,-0.099 0.132,-0.079C0.148,-0.058 0.169,-0.043 0.193,-0.032C0.217,-0.021 0.245,-0.015 0.277,-0.015ZM0.373,-0.711L0.269,-0.586C0.266,-0.582 0.262,-0.58 0.257,-0.58L0.241,-0.58L0.322,-0.698C0.325,-0.703 0.329,-0.706 0.332,-0.708C0.335,-0.71 0.339,-0.711 0.346,-0.711L0.373,-0.711Z" style="fill:white;fill-rule:nonzero;"/>
            </g>
            <g transform="matrix(90,0,0,90,801.571,1619.56)">
                <path d="M0.725,-0.493L0.558,0L0.54,0C0.536,0 0.534,-0.002 0.532,-0.007L0.384,-0.443C0.381,-0.449 0.379,-0.456 0.378,-0.463C0.376,-0.456 0.374,-0.449 0.372,-0.443L0.221,-0.007C0.219,-0.002 0.217,0 0.214,0L0.197,0L0.03,-0.493L0.048,-0.493C0.052,-0.493 0.055,-0.492 0.057,-0.49C0.059,-0.488 0.06,-0.486 0.061,-0.484L0.201,-0.058C0.203,-0.052 0.204,-0.047 0.205,-0.042C0.206,-0.037 0.208,-0.033 0.209,-0.028C0.21,-0.033 0.211,-0.037 0.213,-0.042C0.214,-0.047 0.216,-0.052 0.218,-0.058L0.365,-0.489C0.366,-0.493 0.369,-0.496 0.373,-0.496L0.383,-0.496C0.387,-0.496 0.39,-0.493 0.392,-0.489L0.537,-0.058C0.539,-0.052 0.54,-0.047 0.542,-0.042C0.543,-0.037 0.545,-0.032 0.546,-0.027C0.547,-0.032 0.548,-0.037 0.55,-0.042C0.551,-0.047 0.552,-0.052 0.554,-0.058L0.695,-0.484C0.696,-0.487 0.697,-0.489 0.699,-0.491C0.701,-0.492 0.704,-0.493 0.707,-0.493L0.725,-0.493Z" style="fill:white;fill-rule:nonzero;"/>
            </g>
        </g>
    </g>
</svg>
