<?xml version="1.0" encoding="UTF-8" standalone="no"?>
<!DOCTYPE svg PUBLIC "-//W3C//DTD SVG 1.1//EN" "http://www.w3.org/Graphics/SVG/1.1/DTD/svg11.dtd">
<svg width="100%" height="100%" viewBox="0 0 707 267" version="1.1" xmlns="http://www.w3.org/2000/svg" xmlns:xlink="http://www.w3.org/1999/xlink" xml:space="preserve" xmlns:serif="http://www.serif.com/" style="fill-rule:evenodd;clip-rule:evenodd;stroke-linejoin:round;stroke-miterlimit:2;">
    <g id="g12" transform="matrix(0.133333,0,0,-0.133333,0,266.667)">
        <path id="path14" d="M625.051,1126.43L549.844,757.176L697,757.176L621.211,1126.43L625.051,1126.43ZM369.527,1407.35L975.988,1407.35L975.988,1112.23L890.043,1112.23L1064.1,462.172L1133.75,462.172L1133.75,179.555L692.516,179.555L690.199,462.172L769.891,462.172L736.109,605.895L512.262,605.895L474.645,462.172L549.137,462.172L549.137,179.555L217.535,179.555L217.535,462.172L283.719,462.172L448.555,1112.23L369.527,1112.23L369.527,1407.35" style="fill:white;"/>
        <path id="path18" d="M4569.63,1126.43L4494.43,757.176L4641.59,757.176L4565.79,1126.43L4569.63,1126.43ZM4314.11,1407.35L4920.57,1407.35L4920.57,1112.23L4834.63,1112.23L5008.68,462.172L5078.33,462.172L5078.33,179.555L4637.1,179.555L4634.79,462.172L4714.47,462.172L4680.69,605.895L4456.84,605.895L4419.23,462.172L4493.72,462.172L4493.72,179.555L4162.12,179.555L4162.12,462.172L4228.3,462.172L4393.14,1112.23L4314.11,1112.23L4314.11,1407.35" style="fill:white;"/>
        <path id="path22" d="M1782.63,179.832L1584.52,179.832L1584.52,316.406L1615.02,316.406L1611.02,627.863L1498.62,179.379L1440.9,179.379L1319.44,626.949L1319.44,316.406L1350.29,316.406L1350.29,179.832L1201.81,179.832L1201.81,316.406L1232.31,316.406L1232.31,604.984L1201.81,604.984L1201.81,757.043L1411.77,757.043L1492.75,534.988L1572.67,757.043L1782.63,757.043L1782.63,604.984L1752.12,604.984L1752.12,316.406L1782.63,316.406L1782.63,179.832" style="fill:white;"/>
        <path id="path26" d="M2237.07,179.379L1872.71,179.379L1872.71,317.84L1906.92,317.84L1906.92,605.172L1872.71,605.172L1872.71,757.457L2237.07,757.457L2237.07,564.449L2139.38,564.449L2139.38,605.172L2059.82,605.172L2059.82,533.305L2122.43,533.305L2122.43,403.793L2059.82,403.793L2059.82,317.84L2140.95,317.84L2140.95,360.191L2237.07,360.191L2237.07,179.379" style="fill:white;"/>
        <path id="path30" d="M3574.78,607.188L3543.13,607.188L3441.82,408.656L3441.82,314.082L3475.02,314.082L3475.02,179.824L3242.75,179.824L3242.75,314.082L3295.11,315.984L3295.11,406.754L3178.65,605.285L3146.22,605.285L3146.22,757.457L3361.61,757.457L3361.61,605.285L3332.14,605.285L3382.11,518.066L3442.82,605.285L3414.13,605.285L3414.13,757.457L3574.78,757.457L3574.78,607.188" style="fill:white;"/>
        <path id="path34" d="M4092.17,181.184L3873.57,181.184L3873.57,323.453L3897.47,323.453L3810.68,466.984L3810.68,323.453L3842.3,323.453L3842.3,181.184L3622.49,181.184L3622.49,323.453L3653.75,323.453L3653.75,605.645L3622.49,605.645L3622.49,757.453L3839.04,757.453L3839.04,605.645L3810.68,605.645L3810.68,507.922L3909.43,607.836L3884.95,605.645L3884.95,757.453L4076.9,757.453L4076.9,605.645L4051.34,605.645L3972.24,517.004L4067.33,323.453L4092.17,323.453L4092.17,181.184" style="fill:white;"/>
        <rect id="path38" x="8.238" y="8.945" width="5282.18" height="109.012" style="fill:rgb(210,7,56);"/>
        <path id="path44" d="M5287.88,1111.98L4610.41,1995.13L4316.49,1610.14L2842.25,1610.14L2683.07,1770.38L2520.86,1608.95L973.93,1610.14L681.762,1991.49L8.016,1112.2L136.02,1112.2L681.762,1821.63L998.117,1406.93L1130.04,1406.93L1055.39,1503.7L2415.03,1503.7L2320.17,1406.17L2464.88,1406.17L2683.07,1623.68L2904.08,1405.89L3048.95,1405.89L2950.18,1503.7L4237.38,1503.7L4163.32,1406.32L4291.34,1406.33L4613.54,1831.67L5163.76,1111.72L5287.88,1111.98Z" style="fill:rgb(210,7,56);fill-rule:nonzero;"/>
        <g>
            <g id="path46" transform="matrix(7.50002,0,0,-7.50002,0,2000.01)">
                <path d="M364.156,242.673L305.769,242.673L305.769,203.866L314.253,203.866L314.253,134.017L305.427,134.017L305.427,95.145L370.615,95.145C378.656,95.145 386.134,96.322 392.986,98.642C399.838,100.962 405.944,103.529 409.07,108.179C422.85,128.675 427.471,152.969 406.524,176.447C409.957,187.503 415.414,203.9 418.868,203.903L426.202,203.903L426.202,242.673L411.392,242.673C403.634,242.673 388.039,243.692 383.914,238.349C375.222,227.094 367.924,188.433 365.659,188.422L357.662,188.422L357.662,203.826L364.156,203.826L364.156,242.673ZM409.936,215.386C407.133,215.38 398.436,184.521 395.651,175.121C412.639,155.161 411.967,135.019 400.792,117.595C398.256,113.641 393.306,111.459 387.748,109.486C382.191,107.513 376.128,106.513 369.606,106.513L316.742,106.513L316.742,122.777L323.898,122.777L323.898,215.464L317.018,215.464L317.018,231.901L354.178,231.901L354.178,215.456L346.639,215.456L346.639,177.637L372.771,177.318C375.8,177.282 385.018,218.338 392.067,227.907C395.412,232.448 396.384,231.902 402.675,231.901L414.684,231.901L414.684,215.386L409.936,215.386Z" style="fill:white;"/>
            </g>
            <g id="path54" transform="matrix(7.50002,0,0,-7.50002,0,2000.01)">
                <path d="M368.795,118.39C380.427,118.39 386.332,125.974 386.332,133.619L386.332,148.662C386.332,154.748 384.635,159.11 381.358,161.691C378.06,164.289 372.504,165.614 364.579,165.614L346.735,165.614L346.735,118.39L368.795,118.39ZM367.294,130.177L357.747,130.177L357.747,154.559L365.44,154.559C368.923,154.559 371.363,153.914 372.814,152.652C374.252,151.398 374.999,149.277 374.999,146.32L374.999,137.577C374.999,133.863 372.404,130.177 367.294,130.177Z" style="fill:white;"/>
            </g>
        </g>
    </g>
</svg>
