<?xml version="1.0" standalone="no"?>
<!DOCTYPE svg PUBLIC "-//W3C//DTD SVG 20010904//EN"
 "http://www.w3.org/TR/2001/REC-SVG-20010904/DTD/svg10.dtd">
<svg version="1.0" xmlns="http://www.w3.org/2000/svg"
 width="1024.000000pt" height="1024.000000pt" viewBox="0 0 1024.000000 1024.000000"
 preserveAspectRatio="xMidYMid meet">
<metadata>
Created by potrace 1.11, written by Peter Selinger 2001-2013
</metadata>
<g transform="translate(0.000000,1024.000000) scale(0.100000,-0.100000)"
fill="#000000" stroke="none">
<path d="M3405 10084 c-44 -58 -85 -110 -90 -117 -6 -7 -91 -118 -190 -247
-98 -129 -197 -258 -219 -287 -23 -28 -51 -64 -62 -80 -22 -28 -574 -749 -689
-898 -33 -44 -105 -138 -160 -210 -54 -71 -108 -142 -119 -156 -12 -14 -32
-41 -46 -59 -14 -19 -56 -75 -95 -125 -38 -49 -106 -137 -150 -195 -43 -58
-98 -130 -122 -160 -24 -30 -47 -59 -51 -65 -4 -5 -28 -37 -52 -70 -25 -33
-47 -62 -51 -65 -5 -5 -574 -747 -739 -965 -47 -62 -97 -127 -112 -146 -90
-114 -408 -533 -408 -538 0 -4 147 -6 326 -6 278 0 327 2 334 15 7 12 140 187
183 240 13 16 352 458 491 640 44 58 83 107 86 110 4 3 25 30 47 60 22 30 196
258 387 505 191 248 357 463 369 479 12 16 100 130 195 255 96 124 181 235
190 246 9 11 30 38 47 60 35 48 34 46 88 115 55 70 191 248 236 309 19 25 40
51 45 57 6 6 49 62 96 124 184 242 313 405 320 405 7 0 175 -215 364 -465 22
-30 46 -61 53 -70 7 -8 50 -64 96 -125 46 -60 128 -168 182 -240 343 -449 402
-526 418 -549 10 -13 53 -69 95 -124 43 -55 152 -198 245 -319 l167 -219 333
1 c182 1 333 3 335 4 3 1 -11 19 -231 303 -75 97 -137 180 -137 183 0 3 1086
6 2412 7 l2413 3 0 268 0 267 -620 0 c-341 1 -1522 2 -2625 3 l-2004 2 -121
157 c-123 160 -406 530 -598 781 -59 78 -113 149 -120 157 -7 8 -35 44 -62 80
-27 36 -55 72 -62 80 -7 8 -110 143 -229 300 -256 336 -294 384 -303 387 -3 2
-42 -45 -86 -103z"/>
<path d="M1892 6451 l3 -756 190 -1 c221 -2 218 -2 211 -12 -5 -8 -135 -512
-142 -552 -3 -14 -9 -38 -14 -55 -5 -16 -59 -228 -120 -470 -61 -242 -149
-588 -195 -770 -46 -181 -129 -510 -185 -730 -56 -220 -110 -431 -120 -470
-11 -38 -21 -81 -24 -95 -9 -45 -39 -165 -43 -169 -2 -3 -79 -5 -171 -5 l-167
-1 -1 -722 -1 -723 849 0 848 0 0 723 0 723 -181 0 c-99 -1 -185 1 -189 4 -5
3 6 61 25 130 18 69 51 197 74 285 78 302 83 315 105 315 34 1 1037 1 1083 1
36 -1 43 -5 48 -23 67 -290 139 -596 150 -642 8 -33 12 -62 9 -65 -2 -3 -93
-5 -202 -5 l-197 -1 4 -545 c1 -300 4 -624 5 -720 l1 -175 1130 -3 1130 -2 -1
712 c-1 392 -2 718 -3 724 -1 7 -58 10 -176 10 l-176 -1 -14 50 c-8 28 -23 84
-34 125 -96 365 -144 543 -156 585 -23 78 -156 576 -161 598 -2 11 -14 59 -27
106 -14 47 -34 122 -46 166 -12 44 -39 145 -60 225 -22 80 -53 197 -70 260
-29 113 -112 423 -153 570 -11 41 -24 91 -29 110 -4 19 -35 134 -68 256 -33
121 -61 234 -63 250 l-3 29 215 0 215 0 1 755 0 756 -1553 0 -1553 0 2 -755z
m1305 -701 c-1 -12 -5 -16 -10 -11 -5 5 -6 14 -3 20 11 16 15 13 13 -9z m18
-147 c9 -49 19 -97 21 -108 2 -11 7 -33 9 -50 3 -16 8 -37 10 -45 2 -8 7 -28
9 -45 3 -16 22 -106 42 -200 19 -93 38 -181 40 -195 7 -34 12 -61 19 -90 3
-14 7 -36 10 -50 8 -43 82 -405 130 -635 51 -246 56 -274 59 -294 1 -12 -59
-14 -372 -15 -324 -1 -372 1 -372 14 0 12 71 368 129 645 13 63 22 105 26 130
2 11 10 54 19 95 9 41 26 122 37 180 12 58 22 112 24 120 2 8 27 128 55 265
28 138 53 257 54 265 2 8 7 34 11 58 4 23 10 42 15 42 4 0 15 -39 25 -87z"/>
<path d="M6155 3870 c-2 -3 -4 -178 -3 -388 0 -349 1 -382 16 -383 10 0 45 -1
80 -1 l62 -1 0 -738 0 -739 -79 0 -79 0 -1 -350 0 -350 379 0 c355 0 380 1
381 18 1 19 0 600 0 650 l-1 32 -78 0 -77 0 0 784 c0 431 3 782 7 779 5 -2 8
-10 8 -16 0 -7 25 -105 55 -217 31 -113 74 -272 96 -355 22 -82 47 -172 55
-200 12 -44 69 -255 79 -295 3 -8 13 -46 24 -85 20 -73 76 -279 141 -520 10
-38 36 -135 58 -215 22 -80 52 -193 68 -252 28 -107 29 -108 59 -109 158 -4
261 1 267 13 6 10 225 876 243 958 2 8 20 80 40 160 20 80 38 152 40 160 20
86 249 989 251 988 1 -2 5 -246 9 -543 4 -297 8 -651 10 -787 l3 -248 -79 0
-79 0 0 -350 0 -350 508 0 508 0 -1 347 0 348 -77 3 -78 3 0 738 0 738 70 1
c39 0 74 1 78 1 5 1 8 175 8 389 l-1 387 -537 0 -536 1 -60 -166 c-33 -91 -80
-221 -105 -290 -239 -666 -241 -670 -249 -670 -5 0 -8 5 -8 12 0 11 -54 164
-110 313 -11 28 -44 120 -75 205 -31 85 -65 178 -75 205 -10 28 -33 91 -50
140 -18 50 -38 104 -45 120 -7 17 -20 53 -29 80 l-16 51 -536 0 c-294 0 -537
-3 -539 -6z"/>
<path d="M10 602 c-6 -2 -10 -112 -10 -303 l0 -299 5118 2 5117 3 0 300 0 299
-5108 1 c-2809 0 -5112 -1 -5117 -3z"/>
</g>
</svg>
